<?xml version="1.0" encoding="UTF-8" standalone="no"?>
<!DOCTYPE svg PUBLIC "-//W3C//DTD SVG 1.1//EN"
 "http://www.w3.org/Graphics/SVG/1.1/DTD/svg11.dtd">
<!-- Generated by graphviz version 2.43.0 (0)
 -->
<!-- Title: snakemake_dag Pages: 1 -->
<svg width="868pt" height="764pt"
 viewBox="0.00 0.00 867.50 764.00" xmlns="http://www.w3.org/2000/svg" xmlns:xlink="http://www.w3.org/1999/xlink">
<g id="graph0" class="graph" transform="scale(1 1) rotate(0) translate(4 760)">
<title>snakemake_dag</title>
<polygon fill="white" stroke="transparent" points="-4,4 -4,-760 863.5,-760 863.5,4 -4,4"/>
<!-- 0 -->
<g id="node1" class="node">
<title>0</title>
<path fill="none" stroke="#b6d856" stroke-width="2" stroke-dasharray="5,2" d="M501.5,-36C501.5,-36 471.5,-36 471.5,-36 465.5,-36 459.5,-30 459.5,-24 459.5,-24 459.5,-12 459.5,-12 459.5,-6 465.5,0 471.5,0 471.5,0 501.5,0 501.5,0 507.5,0 513.5,-6 513.5,-12 513.5,-12 513.5,-24 513.5,-24 513.5,-30 507.5,-36 501.5,-36"/>
<text text-anchor="middle" x="486.5" y="-15.5" font-family="sans" font-size="10.00">all</text>
</g>
<!-- 1 -->
<g id="node2" class="node">
<title>1</title>
<path fill="none" stroke="#56d87b" stroke-width="2" stroke-dasharray="5,2" d="M89,-108C89,-108 12,-108 12,-108 6,-108 0,-102 0,-96 0,-96 0,-84 0,-84 0,-78 6,-72 12,-72 12,-72 89,-72 89,-72 95,-72 101,-78 101,-84 101,-84 101,-96 101,-96 101,-102 95,-108 89,-108"/>
<text text-anchor="middle" x="50.5" y="-93" font-family="sans" font-size="10.00">nanoplot</text>
<text text-anchor="middle" x="50.5" y="-82" font-family="sans" font-size="10.00">names: GBBC502</text>
</g>
<!-- 1&#45;&gt;0 -->
<g id="edge1" class="edge">
<title>1&#45;&gt;0</title>
<path fill="none" stroke="grey" stroke-width="2" d="M101.23,-73.89C104.02,-73.21 106.79,-72.58 109.5,-72 232.52,-45.77 380.99,-29.25 449.08,-22.5"/>
<polygon fill="grey" stroke="grey" stroke-width="2" points="449.69,-25.95 459.3,-21.5 449.01,-18.99 449.69,-25.95"/>
</g>
<!-- 2 -->
<g id="node3" class="node">
<title>2</title>
<path fill="none" stroke="#56d87b" stroke-width="2" stroke-dasharray="5,2" d="M236,-108C236,-108 131,-108 131,-108 125,-108 119,-102 119,-96 119,-96 119,-84 119,-84 119,-78 125,-72 131,-72 131,-72 236,-72 236,-72 242,-72 248,-78 248,-84 248,-84 248,-96 248,-96 248,-102 242,-108 236,-108"/>
<text text-anchor="middle" x="183.5" y="-93" font-family="sans" font-size="10.00">nanoplot</text>
<text text-anchor="middle" x="183.5" y="-82" font-family="sans" font-size="10.00">names: GBBC_504_sup</text>
</g>
<!-- 2&#45;&gt;0 -->
<g id="edge2" class="edge">
<title>2&#45;&gt;0</title>
<path fill="none" stroke="grey" stroke-width="2" d="M248.13,-74.07C309.43,-59.91 399.39,-39.12 449.44,-27.56"/>
<polygon fill="grey" stroke="grey" stroke-width="2" points="450.23,-30.97 459.19,-25.31 448.66,-24.15 450.23,-30.97"/>
</g>
<!-- 3 -->
<g id="node4" class="node">
<title>3</title>
<path fill="none" stroke="#56d8b9" stroke-width="2" stroke-dasharray="5,2" d="M463,-756C463,-756 386,-756 386,-756 380,-756 374,-750 374,-744 374,-744 374,-732 374,-732 374,-726 380,-720 386,-720 386,-720 463,-720 463,-720 469,-720 475,-726 475,-732 475,-732 475,-744 475,-744 475,-750 469,-756 463,-756"/>
<text text-anchor="middle" x="424.5" y="-741" font-family="sans" font-size="10.00">filtlong</text>
<text text-anchor="middle" x="424.5" y="-730" font-family="sans" font-size="10.00">names: GBBC502</text>
</g>
<!-- 3&#45;&gt;0 -->
<g id="edge3" class="edge">
<title>3&#45;&gt;0</title>
<path fill="none" stroke="grey" stroke-width="2" d="M385.23,-719.99C341.38,-698.04 276.5,-655.36 276.5,-595 276.5,-595 276.5,-595 276.5,-161 276.5,-114.27 295.88,-101.03 332.5,-72 366.84,-44.78 416.03,-31.09 449.52,-24.53"/>
<polygon fill="grey" stroke="grey" stroke-width="2" points="450.17,-27.97 459.37,-22.71 448.9,-21.08 450.17,-27.97"/>
</g>
<!-- 7 -->
<g id="node8" class="node">
<title>7</title>
<path fill="none" stroke="#d6d856" stroke-width="2" stroke-dasharray="5,2" d="M439.5,-684C439.5,-684 409.5,-684 409.5,-684 403.5,-684 397.5,-678 397.5,-672 397.5,-672 397.5,-660 397.5,-660 397.5,-654 403.5,-648 409.5,-648 409.5,-648 439.5,-648 439.5,-648 445.5,-648 451.5,-654 451.5,-660 451.5,-660 451.5,-672 451.5,-672 451.5,-678 445.5,-684 439.5,-684"/>
<text text-anchor="middle" x="424.5" y="-663.5" font-family="sans" font-size="10.00">unzip</text>
</g>
<!-- 3&#45;&gt;7 -->
<g id="edge16" class="edge">
<title>3&#45;&gt;7</title>
<path fill="none" stroke="grey" stroke-width="2" d="M424.5,-719.7C424.5,-711.98 424.5,-702.71 424.5,-694.11"/>
<polygon fill="grey" stroke="grey" stroke-width="2" points="428,-694.1 424.5,-684.1 421,-694.1 428,-694.1"/>
</g>
<!-- 10 -->
<g id="node11" class="node">
<title>10</title>
<path fill="none" stroke="#d6d856" stroke-width="2" stroke-dasharray="5,2" d="M579.5,-684C579.5,-684 549.5,-684 549.5,-684 543.5,-684 537.5,-678 537.5,-672 537.5,-672 537.5,-660 537.5,-660 537.5,-654 543.5,-648 549.5,-648 549.5,-648 579.5,-648 579.5,-648 585.5,-648 591.5,-654 591.5,-660 591.5,-660 591.5,-672 591.5,-672 591.5,-678 585.5,-684 579.5,-684"/>
<text text-anchor="middle" x="564.5" y="-663.5" font-family="sans" font-size="10.00">unzip</text>
</g>
<!-- 3&#45;&gt;10 -->
<g id="edge20" class="edge">
<title>3&#45;&gt;10</title>
<path fill="none" stroke="grey" stroke-width="2" d="M458.75,-719.88C479.76,-709.37 506.65,-695.92 528.06,-685.22"/>
<polygon fill="grey" stroke="grey" stroke-width="2" points="529.78,-688.27 537.16,-680.67 526.65,-682.01 529.78,-688.27"/>
</g>
<!-- 4 -->
<g id="node5" class="node">
<title>4</title>
<path fill="none" stroke="#56d8b9" stroke-width="2" stroke-dasharray="5,2" d="M617,-756C617,-756 512,-756 512,-756 506,-756 500,-750 500,-744 500,-744 500,-732 500,-732 500,-726 506,-720 512,-720 512,-720 617,-720 617,-720 623,-720 629,-726 629,-732 629,-732 629,-744 629,-744 629,-750 623,-756 617,-756"/>
<text text-anchor="middle" x="564.5" y="-741" font-family="sans" font-size="10.00">filtlong</text>
<text text-anchor="middle" x="564.5" y="-730" font-family="sans" font-size="10.00">names: GBBC_504_sup</text>
</g>
<!-- 4&#45;&gt;0 -->
<g id="edge4" class="edge">
<title>4&#45;&gt;0</title>
<path fill="none" stroke="grey" stroke-width="2" d="M629.24,-733.73C716.08,-725.47 859.5,-696.46 859.5,-595 859.5,-595 859.5,-595 859.5,-161 859.5,-98.46 807.05,-98.72 750.5,-72 675.17,-36.41 576.78,-24.68 523.94,-20.85"/>
<polygon fill="grey" stroke="grey" stroke-width="2" points="523.9,-17.34 513.69,-20.16 523.43,-24.32 523.9,-17.34"/>
</g>
<!-- 4&#45;&gt;7 -->
<g id="edge17" class="edge">
<title>4&#45;&gt;7</title>
<path fill="none" stroke="grey" stroke-width="2" d="M530.25,-719.88C509.24,-709.37 482.35,-695.92 460.94,-685.22"/>
<polygon fill="grey" stroke="grey" stroke-width="2" points="462.35,-682.01 451.84,-680.67 459.22,-688.27 462.35,-682.01"/>
</g>
<!-- 4&#45;&gt;10 -->
<g id="edge21" class="edge">
<title>4&#45;&gt;10</title>
<path fill="none" stroke="grey" stroke-width="2" d="M564.5,-719.7C564.5,-711.98 564.5,-702.71 564.5,-694.11"/>
<polygon fill="grey" stroke="grey" stroke-width="2" points="568,-694.1 564.5,-684.1 561,-694.1 568,-694.1"/>
</g>
<!-- 5 -->
<g id="node6" class="node">
<title>5</title>
<path fill="none" stroke="#d8b456" stroke-width="2" stroke-dasharray="5,2" d="M437,-540C437,-540 402,-540 402,-540 396,-540 390,-534 390,-528 390,-528 390,-516 390,-516 390,-510 396,-504 402,-504 402,-504 437,-504 437,-504 443,-504 449,-510 449,-516 449,-516 449,-528 449,-528 449,-534 443,-540 437,-540"/>
<text text-anchor="middle" x="419.5" y="-519.5" font-family="sans" font-size="10.00">reformat</text>
</g>
<!-- 5&#45;&gt;0 -->
<g id="edge5" class="edge">
<title>5&#45;&gt;0</title>
<path fill="none" stroke="grey" stroke-width="2" d="M395.15,-503.87C364.13,-479.84 314.5,-432.96 314.5,-379 314.5,-379 314.5,-379 314.5,-161 314.5,-91.48 399.09,-49.63 449.63,-30.83"/>
<polygon fill="grey" stroke="grey" stroke-width="2" points="451.02,-34.05 459.25,-27.38 448.65,-27.46 451.02,-34.05"/>
</g>
<!-- 11 -->
<g id="node12" class="node">
<title>11</title>
<path fill="none" stroke="#97d856" stroke-width="2" stroke-dasharray="5,2" d="M451.5,-324C451.5,-324 421.5,-324 421.5,-324 415.5,-324 409.5,-318 409.5,-312 409.5,-312 409.5,-300 409.5,-300 409.5,-294 415.5,-288 421.5,-288 421.5,-288 451.5,-288 451.5,-288 457.5,-288 463.5,-294 463.5,-300 463.5,-300 463.5,-312 463.5,-312 463.5,-318 457.5,-324 451.5,-324"/>
<text text-anchor="middle" x="436.5" y="-303.5" font-family="sans" font-size="10.00">racon</text>
</g>
<!-- 5&#45;&gt;11 -->
<g id="edge22" class="edge">
<title>5&#45;&gt;11</title>
<path fill="none" stroke="grey" stroke-width="2" d="M435.11,-503.77C442.87,-494.03 451.45,-481.18 455.5,-468 469.53,-422.36 456.63,-366.51 446.32,-334.02"/>
<polygon fill="grey" stroke="grey" stroke-width="2" points="449.58,-332.73 443.1,-324.34 442.93,-334.93 449.58,-332.73"/>
</g>
<!-- 12 -->
<g id="node13" class="node">
<title>12</title>
<path fill="none" stroke="#56d89a" stroke-width="2" stroke-dasharray="5,2" d="M434.5,-468C434.5,-468 404.5,-468 404.5,-468 398.5,-468 392.5,-462 392.5,-456 392.5,-456 392.5,-444 392.5,-444 392.5,-438 398.5,-432 404.5,-432 404.5,-432 434.5,-432 434.5,-432 440.5,-432 446.5,-438 446.5,-444 446.5,-444 446.5,-456 446.5,-456 446.5,-462 440.5,-468 434.5,-468"/>
<text text-anchor="middle" x="419.5" y="-447.5" font-family="sans" font-size="10.00">flye</text>
</g>
<!-- 5&#45;&gt;12 -->
<g id="edge25" class="edge">
<title>5&#45;&gt;12</title>
<path fill="none" stroke="grey" stroke-width="2" d="M419.5,-503.7C419.5,-495.98 419.5,-486.71 419.5,-478.11"/>
<polygon fill="grey" stroke="grey" stroke-width="2" points="423,-478.1 419.5,-468.1 416,-478.1 423,-478.1"/>
</g>
<!-- 13 -->
<g id="node14" class="node">
<title>13</title>
<path fill="none" stroke="#56d8d8" stroke-width="2" stroke-dasharray="5,2" d="M396.5,-396C396.5,-396 354.5,-396 354.5,-396 348.5,-396 342.5,-390 342.5,-384 342.5,-384 342.5,-372 342.5,-372 342.5,-366 348.5,-360 354.5,-360 354.5,-360 396.5,-360 396.5,-360 402.5,-360 408.5,-366 408.5,-372 408.5,-372 408.5,-384 408.5,-384 408.5,-390 402.5,-396 396.5,-396"/>
<text text-anchor="middle" x="375.5" y="-375.5" font-family="sans" font-size="10.00">minimap2</text>
</g>
<!-- 5&#45;&gt;13 -->
<g id="edge26" class="edge">
<title>5&#45;&gt;13</title>
<path fill="none" stroke="grey" stroke-width="2" d="M404.36,-503.62C396.73,-493.83 388.14,-480.99 383.5,-468 376.42,-448.19 374.6,-424.39 374.45,-406.39"/>
<polygon fill="grey" stroke="grey" stroke-width="2" points="377.95,-406.3 374.53,-396.27 370.95,-406.25 377.95,-406.3"/>
</g>
<!-- 6 -->
<g id="node7" class="node">
<title>6</title>
<path fill="none" stroke="#569ad8" stroke-width="2" stroke-dasharray="5,2" d="M442.5,-612C442.5,-612 404.5,-612 404.5,-612 398.5,-612 392.5,-606 392.5,-600 392.5,-600 392.5,-588 392.5,-588 392.5,-582 398.5,-576 404.5,-576 404.5,-576 442.5,-576 442.5,-576 448.5,-576 454.5,-582 454.5,-588 454.5,-588 454.5,-600 454.5,-600 454.5,-606 448.5,-612 442.5,-612"/>
<text text-anchor="middle" x="423.5" y="-591.5" font-family="sans" font-size="10.00">porechop</text>
</g>
<!-- 6&#45;&gt;5 -->
<g id="edge14" class="edge">
<title>6&#45;&gt;5</title>
<path fill="none" stroke="grey" stroke-width="2" d="M422.51,-575.7C422.07,-567.98 421.54,-558.71 421.05,-550.11"/>
<polygon fill="grey" stroke="grey" stroke-width="2" points="424.54,-549.89 420.48,-540.1 417.55,-550.29 424.54,-549.89"/>
</g>
<!-- 7&#45;&gt;6 -->
<g id="edge15" class="edge">
<title>7&#45;&gt;6</title>
<path fill="none" stroke="grey" stroke-width="2" d="M424.25,-647.7C424.14,-639.98 424.01,-630.71 423.89,-622.11"/>
<polygon fill="grey" stroke="grey" stroke-width="2" points="427.39,-622.05 423.74,-612.1 420.39,-622.15 427.39,-622.05"/>
</g>
<!-- 8 -->
<g id="node9" class="node">
<title>8</title>
<path fill="none" stroke="#d8b456" stroke-width="2" stroke-dasharray="5,2" d="M612,-540C612,-540 577,-540 577,-540 571,-540 565,-534 565,-528 565,-528 565,-516 565,-516 565,-510 571,-504 577,-504 577,-504 612,-504 612,-504 618,-504 624,-510 624,-516 624,-516 624,-528 624,-528 624,-534 618,-540 612,-540"/>
<text text-anchor="middle" x="594.5" y="-519.5" font-family="sans" font-size="10.00">reformat</text>
</g>
<!-- 8&#45;&gt;0 -->
<g id="edge6" class="edge">
<title>8&#45;&gt;0</title>
<path fill="none" stroke="grey" stroke-width="2" d="M587.76,-503.69C571.6,-461.43 530.49,-349.29 510.5,-252 495.41,-178.56 489.61,-90.04 487.54,-46.26"/>
<polygon fill="grey" stroke="grey" stroke-width="2" points="491.03,-45.97 487.09,-36.13 484.04,-46.28 491.03,-45.97"/>
</g>
<!-- 14 -->
<g id="node15" class="node">
<title>14</title>
<path fill="none" stroke="#97d856" stroke-width="2" stroke-dasharray="5,2" d="M727.5,-324C727.5,-324 697.5,-324 697.5,-324 691.5,-324 685.5,-318 685.5,-312 685.5,-312 685.5,-300 685.5,-300 685.5,-294 691.5,-288 697.5,-288 697.5,-288 727.5,-288 727.5,-288 733.5,-288 739.5,-294 739.5,-300 739.5,-300 739.5,-312 739.5,-312 739.5,-318 733.5,-324 727.5,-324"/>
<text text-anchor="middle" x="712.5" y="-303.5" font-family="sans" font-size="10.00">racon</text>
</g>
<!-- 8&#45;&gt;14 -->
<g id="edge28" class="edge">
<title>8&#45;&gt;14</title>
<path fill="none" stroke="grey" stroke-width="2" d="M624.22,-511.36C644.73,-503.13 670.84,-489.21 685.5,-468 713.27,-427.82 715.89,-368.77 714.63,-334.47"/>
<polygon fill="grey" stroke="grey" stroke-width="2" points="718.12,-334.07 714.11,-324.25 711.12,-334.42 718.12,-334.07"/>
</g>
<!-- 15 -->
<g id="node16" class="node">
<title>15</title>
<path fill="none" stroke="#56d89a" stroke-width="2" stroke-dasharray="5,2" d="M664.5,-468C664.5,-468 634.5,-468 634.5,-468 628.5,-468 622.5,-462 622.5,-456 622.5,-456 622.5,-444 622.5,-444 622.5,-438 628.5,-432 634.5,-432 634.5,-432 664.5,-432 664.5,-432 670.5,-432 676.5,-438 676.5,-444 676.5,-444 676.5,-456 676.5,-456 676.5,-462 670.5,-468 664.5,-468"/>
<text text-anchor="middle" x="649.5" y="-447.5" font-family="sans" font-size="10.00">flye</text>
</g>
<!-- 8&#45;&gt;15 -->
<g id="edge31" class="edge">
<title>8&#45;&gt;15</title>
<path fill="none" stroke="grey" stroke-width="2" d="M608.1,-503.7C614.62,-495.39 622.57,-485.28 629.75,-476.14"/>
<polygon fill="grey" stroke="grey" stroke-width="2" points="632.63,-478.13 636.06,-468.1 627.13,-473.81 632.63,-478.13"/>
</g>
<!-- 16 -->
<g id="node17" class="node">
<title>16</title>
<path fill="none" stroke="#56d8d8" stroke-width="2" stroke-dasharray="5,2" d="M634.5,-396C634.5,-396 592.5,-396 592.5,-396 586.5,-396 580.5,-390 580.5,-384 580.5,-384 580.5,-372 580.5,-372 580.5,-366 586.5,-360 592.5,-360 592.5,-360 634.5,-360 634.5,-360 640.5,-360 646.5,-366 646.5,-372 646.5,-372 646.5,-384 646.5,-384 646.5,-390 640.5,-396 634.5,-396"/>
<text text-anchor="middle" x="613.5" y="-375.5" font-family="sans" font-size="10.00">minimap2</text>
</g>
<!-- 8&#45;&gt;16 -->
<g id="edge32" class="edge">
<title>8&#45;&gt;16</title>
<path fill="none" stroke="grey" stroke-width="2" d="M596.79,-503.87C600.03,-479.67 605.98,-435.21 609.83,-406.39"/>
<polygon fill="grey" stroke="grey" stroke-width="2" points="613.34,-406.57 611.2,-396.19 606.4,-405.64 613.34,-406.57"/>
</g>
<!-- 9 -->
<g id="node10" class="node">
<title>9</title>
<path fill="none" stroke="#569ad8" stroke-width="2" stroke-dasharray="5,2" d="M611.5,-612C611.5,-612 573.5,-612 573.5,-612 567.5,-612 561.5,-606 561.5,-600 561.5,-600 561.5,-588 561.5,-588 561.5,-582 567.5,-576 573.5,-576 573.5,-576 611.5,-576 611.5,-576 617.5,-576 623.5,-582 623.5,-588 623.5,-588 623.5,-600 623.5,-600 623.5,-606 617.5,-612 611.5,-612"/>
<text text-anchor="middle" x="592.5" y="-591.5" font-family="sans" font-size="10.00">porechop</text>
</g>
<!-- 9&#45;&gt;8 -->
<g id="edge18" class="edge">
<title>9&#45;&gt;8</title>
<path fill="none" stroke="grey" stroke-width="2" d="M592.99,-575.7C593.21,-567.98 593.48,-558.71 593.73,-550.11"/>
<polygon fill="grey" stroke="grey" stroke-width="2" points="597.22,-550.2 594.01,-540.1 590.23,-550 597.22,-550.2"/>
</g>
<!-- 10&#45;&gt;9 -->
<g id="edge19" class="edge">
<title>10&#45;&gt;9</title>
<path fill="none" stroke="grey" stroke-width="2" d="M571.42,-647.7C574.57,-639.81 578.38,-630.3 581.88,-621.55"/>
<polygon fill="grey" stroke="grey" stroke-width="2" points="585.19,-622.69 585.66,-612.1 578.69,-620.09 585.19,-622.69"/>
</g>
<!-- 11&#45;&gt;0 -->
<g id="edge7" class="edge">
<title>11&#45;&gt;0</title>
<path fill="none" stroke="grey" stroke-width="2" d="M420.42,-287.66C395.14,-258.22 351.02,-196.52 371.5,-144 388.08,-101.49 426.63,-64.71 454.53,-42.25"/>
<polygon fill="grey" stroke="grey" stroke-width="2" points="456.75,-44.96 462.45,-36.03 452.43,-39.46 456.75,-44.96"/>
</g>
<!-- 17 -->
<g id="node18" class="node">
<title>17</title>
<path fill="none" stroke="#56b9d8" stroke-width="2" stroke-dasharray="5,2" d="M714.5,-180C714.5,-180 684.5,-180 684.5,-180 678.5,-180 672.5,-174 672.5,-168 672.5,-168 672.5,-156 672.5,-156 672.5,-150 678.5,-144 684.5,-144 684.5,-144 714.5,-144 714.5,-144 720.5,-144 726.5,-150 726.5,-156 726.5,-156 726.5,-168 726.5,-168 726.5,-174 720.5,-180 714.5,-180"/>
<text text-anchor="middle" x="699.5" y="-159.5" font-family="sans" font-size="10.00">skani</text>
</g>
<!-- 11&#45;&gt;17 -->
<g id="edge34" class="edge">
<title>11&#45;&gt;17</title>
<path fill="none" stroke="grey" stroke-width="2" d="M463.75,-305.38C508.38,-304.6 597.74,-297.02 654.5,-252 674.14,-236.42 685.96,-210 692.52,-189.98"/>
<polygon fill="grey" stroke="grey" stroke-width="2" points="695.94,-190.78 695.48,-180.19 689.24,-188.75 695.94,-190.78"/>
</g>
<!-- 19 -->
<g id="node20" class="node">
<title>19</title>
<path fill="none" stroke="#d87556" stroke-width="2" stroke-dasharray="5,2" d="M561.5,-252C561.5,-252 531.5,-252 531.5,-252 525.5,-252 519.5,-246 519.5,-240 519.5,-240 519.5,-228 519.5,-228 519.5,-222 525.5,-216 531.5,-216 531.5,-216 561.5,-216 561.5,-216 567.5,-216 573.5,-222 573.5,-228 573.5,-228 573.5,-240 573.5,-240 573.5,-246 567.5,-252 561.5,-252"/>
<text text-anchor="middle" x="546.5" y="-231.5" font-family="sans" font-size="10.00">quast</text>
</g>
<!-- 11&#45;&gt;19 -->
<g id="edge38" class="edge">
<title>11&#45;&gt;19</title>
<path fill="none" stroke="grey" stroke-width="2" d="M463.41,-287.88C477.66,-278.81 495.35,-267.55 510.74,-257.76"/>
<polygon fill="grey" stroke="grey" stroke-width="2" points="512.93,-260.51 519.49,-252.19 509.17,-254.61 512.93,-260.51"/>
</g>
<!-- 24 -->
<g id="node25" class="node">
<title>24</title>
<path fill="none" stroke="#d85656" stroke-width="2" stroke-dasharray="5,2" d="M446.5,-252C446.5,-252 416.5,-252 416.5,-252 410.5,-252 404.5,-246 404.5,-240 404.5,-240 404.5,-228 404.5,-228 404.5,-222 410.5,-216 416.5,-216 416.5,-216 446.5,-216 446.5,-216 452.5,-216 458.5,-222 458.5,-228 458.5,-228 458.5,-240 458.5,-240 458.5,-246 452.5,-252 446.5,-252"/>
<text text-anchor="middle" x="431.5" y="-231.5" font-family="sans" font-size="10.00">busco</text>
</g>
<!-- 11&#45;&gt;24 -->
<g id="edge45" class="edge">
<title>11&#45;&gt;24</title>
<path fill="none" stroke="grey" stroke-width="2" d="M435.26,-287.7C434.71,-279.98 434.05,-270.71 433.44,-262.11"/>
<polygon fill="grey" stroke="grey" stroke-width="2" points="436.93,-261.83 432.72,-252.1 429.94,-262.33 436.93,-261.83"/>
</g>
<!-- 12&#45;&gt;11 -->
<g id="edge23" class="edge">
<title>12&#45;&gt;11</title>
<path fill="none" stroke="grey" stroke-width="2" d="M421.55,-431.87C424.45,-407.67 429.77,-363.21 433.22,-334.39"/>
<polygon fill="grey" stroke="grey" stroke-width="2" points="436.73,-334.53 434.44,-324.19 429.78,-333.7 436.73,-334.53"/>
</g>
<!-- 12&#45;&gt;13 -->
<g id="edge27" class="edge">
<title>12&#45;&gt;13</title>
<path fill="none" stroke="grey" stroke-width="2" d="M408.62,-431.7C403.51,-423.56 397.3,-413.69 391.66,-404.7"/>
<polygon fill="grey" stroke="grey" stroke-width="2" points="394.54,-402.71 386.25,-396.1 388.61,-406.43 394.54,-402.71"/>
</g>
<!-- 13&#45;&gt;11 -->
<g id="edge24" class="edge">
<title>13&#45;&gt;11</title>
<path fill="none" stroke="grey" stroke-width="2" d="M390.58,-359.7C397.89,-351.3 406.81,-341.07 414.84,-331.86"/>
<polygon fill="grey" stroke="grey" stroke-width="2" points="417.66,-333.94 421.59,-324.1 412.39,-329.34 417.66,-333.94"/>
</g>
<!-- 14&#45;&gt;0 -->
<g id="edge8" class="edge">
<title>14&#45;&gt;0</title>
<path fill="none" stroke="grey" stroke-width="2" d="M739.84,-291.62C754.83,-282.67 772.03,-269.35 780.5,-252 810.39,-190.8 763.88,-108.49 720.5,-72 691.09,-47.26 582.51,-30.65 524.17,-23.3"/>
<polygon fill="grey" stroke="grey" stroke-width="2" points="524.24,-19.79 513.89,-22.04 523.39,-26.73 524.24,-19.79"/>
</g>
<!-- 14&#45;&gt;17 -->
<g id="edge35" class="edge">
<title>14&#45;&gt;17</title>
<path fill="none" stroke="grey" stroke-width="2" d="M736.25,-287.91C747.05,-278.65 758.7,-266.2 764.5,-252 770.55,-237.19 771.36,-230.45 764.5,-216 758.17,-202.66 746.65,-191.58 735.06,-183.05"/>
<polygon fill="grey" stroke="grey" stroke-width="2" points="736.9,-180.07 726.67,-177.3 732.94,-185.84 736.9,-180.07"/>
</g>
<!-- 20 -->
<g id="node21" class="node">
<title>20</title>
<path fill="none" stroke="#d87556" stroke-width="2" stroke-dasharray="5,2" d="M743.5,-252C743.5,-252 713.5,-252 713.5,-252 707.5,-252 701.5,-246 701.5,-240 701.5,-240 701.5,-228 701.5,-228 701.5,-222 707.5,-216 713.5,-216 713.5,-216 743.5,-216 743.5,-216 749.5,-216 755.5,-222 755.5,-228 755.5,-228 755.5,-240 755.5,-240 755.5,-246 749.5,-252 743.5,-252"/>
<text text-anchor="middle" x="728.5" y="-231.5" font-family="sans" font-size="10.00">quast</text>
</g>
<!-- 14&#45;&gt;20 -->
<g id="edge39" class="edge">
<title>14&#45;&gt;20</title>
<path fill="none" stroke="grey" stroke-width="2" d="M716.46,-287.7C718.22,-279.98 720.34,-270.71 722.3,-262.11"/>
<polygon fill="grey" stroke="grey" stroke-width="2" points="725.77,-262.63 724.59,-252.1 718.95,-261.07 725.77,-262.63"/>
</g>
<!-- 25 -->
<g id="node26" class="node">
<title>25</title>
<path fill="none" stroke="#d85656" stroke-width="2" stroke-dasharray="5,2" d="M633.5,-252C633.5,-252 603.5,-252 603.5,-252 597.5,-252 591.5,-246 591.5,-240 591.5,-240 591.5,-228 591.5,-228 591.5,-222 597.5,-216 603.5,-216 603.5,-216 633.5,-216 633.5,-216 639.5,-216 645.5,-222 645.5,-228 645.5,-228 645.5,-240 645.5,-240 645.5,-246 639.5,-252 633.5,-252"/>
<text text-anchor="middle" x="618.5" y="-231.5" font-family="sans" font-size="10.00">busco</text>
</g>
<!-- 14&#45;&gt;25 -->
<g id="edge46" class="edge">
<title>14&#45;&gt;25</title>
<path fill="none" stroke="grey" stroke-width="2" d="M689.26,-287.7C677.31,-278.8 662.58,-267.82 649.65,-258.2"/>
<polygon fill="grey" stroke="grey" stroke-width="2" points="651.58,-255.27 641.47,-252.1 647.4,-260.88 651.58,-255.27"/>
</g>
<!-- 15&#45;&gt;14 -->
<g id="edge29" class="edge">
<title>15&#45;&gt;14</title>
<path fill="none" stroke="grey" stroke-width="2" d="M657.1,-431.87C667.93,-407.46 687.91,-362.43 700.68,-333.64"/>
<polygon fill="grey" stroke="grey" stroke-width="2" points="704.02,-334.75 704.87,-324.19 697.62,-331.91 704.02,-334.75"/>
</g>
<!-- 15&#45;&gt;16 -->
<g id="edge33" class="edge">
<title>15&#45;&gt;16</title>
<path fill="none" stroke="grey" stroke-width="2" d="M640.6,-431.7C636.5,-423.73 631.55,-414.1 627.01,-405.26"/>
<polygon fill="grey" stroke="grey" stroke-width="2" points="629.98,-403.4 622.3,-396.1 623.76,-406.6 629.98,-403.4"/>
</g>
<!-- 16&#45;&gt;14 -->
<g id="edge30" class="edge">
<title>16&#45;&gt;14</title>
<path fill="none" stroke="grey" stroke-width="2" d="M637.72,-359.88C650.42,-350.89 666.16,-339.76 679.92,-330.03"/>
<polygon fill="grey" stroke="grey" stroke-width="2" points="682.04,-332.82 688.19,-324.19 678,-327.11 682.04,-332.82"/>
</g>
<!-- 17&#45;&gt;0 -->
<g id="edge9" class="edge">
<title>17&#45;&gt;0</title>
<path fill="none" stroke="grey" stroke-width="2" d="M705.72,-143.93C711.65,-124.38 717.51,-92.44 701.5,-72 679.84,-44.35 579.57,-29.17 523.94,-22.75"/>
<polygon fill="grey" stroke="grey" stroke-width="2" points="524.1,-19.24 513.77,-21.61 523.32,-26.2 524.1,-19.24"/>
</g>
<!-- 21 -->
<g id="node22" class="node">
<title>21</title>
<path fill="none" stroke="#d89556" stroke-width="2" stroke-dasharray="5,2" d="M680.5,-108C680.5,-108 650.5,-108 650.5,-108 644.5,-108 638.5,-102 638.5,-96 638.5,-96 638.5,-84 638.5,-84 638.5,-78 644.5,-72 650.5,-72 650.5,-72 680.5,-72 680.5,-72 686.5,-72 692.5,-78 692.5,-84 692.5,-84 692.5,-96 692.5,-96 692.5,-102 686.5,-108 680.5,-108"/>
<text text-anchor="middle" x="665.5" y="-87.5" font-family="sans" font-size="10.00">xlsx</text>
</g>
<!-- 17&#45;&gt;21 -->
<g id="edge41" class="edge">
<title>17&#45;&gt;21</title>
<path fill="none" stroke="grey" stroke-width="2" d="M691.1,-143.7C687.23,-135.73 682.55,-126.1 678.26,-117.26"/>
<polygon fill="grey" stroke="grey" stroke-width="2" points="681.33,-115.57 673.81,-108.1 675.03,-118.63 681.33,-115.57"/>
</g>
<!-- 18 -->
<g id="node19" class="node">
<title>18</title>
<path fill="none" stroke="#78d856" stroke-width="2" stroke-dasharray="5,2" d="M618.5,-180C618.5,-180 554.5,-180 554.5,-180 548.5,-180 542.5,-174 542.5,-168 542.5,-168 542.5,-156 542.5,-156 542.5,-150 548.5,-144 554.5,-144 554.5,-144 618.5,-144 618.5,-144 624.5,-144 630.5,-150 630.5,-156 630.5,-156 630.5,-168 630.5,-168 630.5,-174 624.5,-180 618.5,-180"/>
<text text-anchor="middle" x="586.5" y="-159.5" font-family="sans" font-size="10.00">summarytable</text>
</g>
<!-- 18&#45;&gt;0 -->
<g id="edge10" class="edge">
<title>18&#45;&gt;0</title>
<path fill="none" stroke="grey" stroke-width="2" d="M571.66,-143.72C563.13,-133.54 552.38,-120.29 543.5,-108 528.59,-87.35 513.09,-62.93 502.02,-44.9"/>
<polygon fill="grey" stroke="grey" stroke-width="2" points="504.86,-42.83 496.67,-36.1 498.88,-46.47 504.86,-42.83"/>
</g>
<!-- 18&#45;&gt;21 -->
<g id="edge40" class="edge">
<title>18&#45;&gt;21</title>
<path fill="none" stroke="grey" stroke-width="2" d="M606.03,-143.7C615.88,-134.97 627.99,-124.24 638.7,-114.75"/>
<polygon fill="grey" stroke="grey" stroke-width="2" points="641.03,-117.36 646.2,-108.1 636.39,-112.12 641.03,-117.36"/>
</g>
<!-- 22 -->
<g id="node23" class="node">
<title>22</title>
<path fill="none" stroke="#59d856" stroke-width="2" stroke-dasharray="5,2" d="M608.5,-108C608.5,-108 564.5,-108 564.5,-108 558.5,-108 552.5,-102 552.5,-96 552.5,-96 552.5,-84 552.5,-84 552.5,-78 558.5,-72 564.5,-72 564.5,-72 608.5,-72 608.5,-72 614.5,-72 620.5,-78 620.5,-84 620.5,-84 620.5,-96 620.5,-96 620.5,-102 614.5,-108 608.5,-108"/>
<text text-anchor="middle" x="586.5" y="-87.5" font-family="sans" font-size="10.00">beeswarm</text>
</g>
<!-- 18&#45;&gt;22 -->
<g id="edge42" class="edge">
<title>18&#45;&gt;22</title>
<path fill="none" stroke="grey" stroke-width="2" d="M586.5,-143.7C586.5,-135.98 586.5,-126.71 586.5,-118.11"/>
<polygon fill="grey" stroke="grey" stroke-width="2" points="590,-118.1 586.5,-108.1 583,-118.1 590,-118.1"/>
</g>
<!-- 19&#45;&gt;18 -->
<g id="edge36" class="edge">
<title>19&#45;&gt;18</title>
<path fill="none" stroke="grey" stroke-width="2" d="M556.39,-215.7C560.99,-207.64 566.56,-197.89 571.65,-188.98"/>
<polygon fill="grey" stroke="grey" stroke-width="2" points="574.8,-190.52 576.73,-180.1 568.73,-187.05 574.8,-190.52"/>
</g>
<!-- 20&#45;&gt;18 -->
<g id="edge37" class="edge">
<title>20&#45;&gt;18</title>
<path fill="none" stroke="grey" stroke-width="2" d="M701.46,-219.67C681.28,-209.72 653.3,-195.93 629.99,-184.44"/>
<polygon fill="grey" stroke="grey" stroke-width="2" points="631.51,-181.28 620.99,-180 628.41,-187.56 631.51,-181.28"/>
</g>
<!-- 21&#45;&gt;0 -->
<g id="edge11" class="edge">
<title>21&#45;&gt;0</title>
<path fill="none" stroke="grey" stroke-width="2" d="M638.49,-75.94C635.47,-74.57 632.43,-73.23 629.5,-72 593.91,-57.04 552.47,-41.92 523.39,-31.69"/>
<polygon fill="grey" stroke="grey" stroke-width="2" points="524.25,-28.28 513.65,-28.28 521.94,-34.89 524.25,-28.28"/>
</g>
<!-- 22&#45;&gt;0 -->
<g id="edge12" class="edge">
<title>22&#45;&gt;0</title>
<path fill="none" stroke="grey" stroke-width="2" d="M562.04,-71.88C549.2,-62.89 533.3,-51.76 519.41,-42.03"/>
<polygon fill="grey" stroke="grey" stroke-width="2" points="521.26,-39.06 511.06,-36.19 517.24,-44.79 521.26,-39.06"/>
</g>
<!-- 23 -->
<g id="node24" class="node">
<title>23</title>
<path fill="none" stroke="#567bd8" stroke-width="2" stroke-dasharray="5,2" d="M460.5,-180C460.5,-180 392.5,-180 392.5,-180 386.5,-180 380.5,-174 380.5,-168 380.5,-168 380.5,-156 380.5,-156 380.5,-150 386.5,-144 392.5,-144 392.5,-144 460.5,-144 460.5,-144 466.5,-144 472.5,-150 472.5,-156 472.5,-156 472.5,-168 472.5,-168 472.5,-174 466.5,-180 460.5,-180"/>
<text text-anchor="middle" x="426.5" y="-159.5" font-family="sans" font-size="10.00">buscosummary</text>
</g>
<!-- 23&#45;&gt;0 -->
<g id="edge13" class="edge">
<title>23&#45;&gt;0</title>
<path fill="none" stroke="grey" stroke-width="2" d="M433.74,-143.87C444.05,-119.46 463.08,-74.43 475.25,-45.64"/>
<polygon fill="grey" stroke="grey" stroke-width="2" points="478.57,-46.76 479.24,-36.19 472.12,-44.04 478.57,-46.76"/>
</g>
<!-- 24&#45;&gt;23 -->
<g id="edge43" class="edge">
<title>24&#45;&gt;23</title>
<path fill="none" stroke="grey" stroke-width="2" d="M430.26,-215.7C429.71,-207.98 429.05,-198.71 428.44,-190.11"/>
<polygon fill="grey" stroke="grey" stroke-width="2" points="431.93,-189.83 427.72,-180.1 424.94,-190.33 431.93,-189.83"/>
</g>
<!-- 25&#45;&gt;23 -->
<g id="edge44" class="edge">
<title>25&#45;&gt;23</title>
<path fill="none" stroke="grey" stroke-width="2" d="M591.13,-219.68C588.23,-218.39 585.32,-217.14 582.5,-216 549.86,-202.8 512.55,-190.04 482.59,-180.35"/>
<polygon fill="grey" stroke="grey" stroke-width="2" points="483.33,-176.91 472.74,-177.18 481.19,-183.57 483.33,-176.91"/>
</g>
</g>
</svg>
