<?xml version="1.0" encoding="UTF-8" standalone="no"?>
<!DOCTYPE svg PUBLIC "-//W3C//DTD SVG 1.1//EN"
 "http://www.w3.org/Graphics/SVG/1.1/DTD/svg11.dtd">
<!-- Generated by graphviz version 2.43.0 (0)
 -->
<!-- Title: snakemake_dag Pages: 1 -->
<svg width="341pt" height="764pt"
 viewBox="0.00 0.00 340.50 764.00" xmlns="http://www.w3.org/2000/svg" xmlns:xlink="http://www.w3.org/1999/xlink">
<g id="graph0" class="graph" transform="scale(1 1) rotate(0) translate(4 760)">
<title>snakemake_dag</title>
<polygon fill="white" stroke="transparent" points="-4,4 -4,-760 336.5,-760 336.5,4 -4,4"/>
<!-- 0 -->
<g id="node1" class="node">
<title>0</title>
<path fill="none" stroke="#d85656" stroke-width="2" d="M165.5,-36C165.5,-36 135.5,-36 135.5,-36 129.5,-36 123.5,-30 123.5,-24 123.5,-24 123.5,-12 123.5,-12 123.5,-6 129.5,0 135.5,0 135.5,0 165.5,0 165.5,0 171.5,0 177.5,-6 177.5,-12 177.5,-12 177.5,-24 177.5,-24 177.5,-30 171.5,-36 165.5,-36"/>
<text text-anchor="middle" x="150.5" y="-15.5" font-family="sans" font-size="10.00">all</text>
</g>
<!-- 1 -->
<g id="node2" class="node">
<title>1</title>
<path fill="none" stroke="#78d856" stroke-width="2" d="M47,-108C47,-108 12,-108 12,-108 6,-108 0,-102 0,-96 0,-96 0,-84 0,-84 0,-78 6,-72 12,-72 12,-72 47,-72 47,-72 53,-72 59,-78 59,-84 59,-84 59,-96 59,-96 59,-102 53,-108 47,-108"/>
<text text-anchor="middle" x="29.5" y="-87.5" font-family="sans" font-size="10.00">nanoplot</text>
</g>
<!-- 1&#45;&gt;0 -->
<g id="edge3" class="edge">
<title>1&#45;&gt;0</title>
<path fill="none" stroke="grey" stroke-width="2" d="M59.1,-71.88C75.78,-62.23 96.75,-50.1 114.39,-39.89"/>
<polygon fill="grey" stroke="grey" stroke-width="2" points="116.37,-42.79 123.27,-34.75 112.87,-36.73 116.37,-42.79"/>
</g>
<!-- 2 -->
<g id="node3" class="node">
<title>2</title>
<path fill="none" stroke="#567bd8" stroke-width="2" d="M205.5,-108C205.5,-108 175.5,-108 175.5,-108 169.5,-108 163.5,-102 163.5,-96 163.5,-96 163.5,-84 163.5,-84 163.5,-78 169.5,-72 175.5,-72 175.5,-72 205.5,-72 205.5,-72 211.5,-72 217.5,-78 217.5,-84 217.5,-84 217.5,-96 217.5,-96 217.5,-102 211.5,-108 205.5,-108"/>
<text text-anchor="middle" x="190.5" y="-87.5" font-family="sans" font-size="10.00">xlsx</text>
</g>
<!-- 2&#45;&gt;0 -->
<g id="edge4" class="edge">
<title>2&#45;&gt;0</title>
<path fill="none" stroke="grey" stroke-width="2" d="M180.61,-71.7C176.01,-63.64 170.44,-53.89 165.35,-44.98"/>
<polygon fill="grey" stroke="grey" stroke-width="2" points="168.27,-43.05 160.27,-36.1 162.2,-46.52 168.27,-43.05"/>
</g>
<!-- 3 -->
<g id="node4" class="node">
<title>3</title>
<path fill="none" stroke="#d8b456" stroke-width="2" d="M138.5,-180C138.5,-180 74.5,-180 74.5,-180 68.5,-180 62.5,-174 62.5,-168 62.5,-168 62.5,-156 62.5,-156 62.5,-150 68.5,-144 74.5,-144 74.5,-144 138.5,-144 138.5,-144 144.5,-144 150.5,-150 150.5,-156 150.5,-156 150.5,-168 150.5,-168 150.5,-174 144.5,-180 138.5,-180"/>
<text text-anchor="middle" x="106.5" y="-159.5" font-family="sans" font-size="10.00">summarytable</text>
</g>
<!-- 3&#45;&gt;2 -->
<g id="edge6" class="edge">
<title>3&#45;&gt;2</title>
<path fill="none" stroke="grey" stroke-width="2" d="M127.26,-143.7C137.74,-134.97 150.61,-124.24 162,-114.75"/>
<polygon fill="grey" stroke="grey" stroke-width="2" points="164.53,-117.19 169.97,-108.1 160.05,-111.82 164.53,-117.19"/>
</g>
<!-- 13 -->
<g id="node14" class="node">
<title>13</title>
<path fill="none" stroke="#d87556" stroke-width="2" d="M133.5,-108C133.5,-108 89.5,-108 89.5,-108 83.5,-108 77.5,-102 77.5,-96 77.5,-96 77.5,-84 77.5,-84 77.5,-78 83.5,-72 89.5,-72 89.5,-72 133.5,-72 133.5,-72 139.5,-72 145.5,-78 145.5,-84 145.5,-84 145.5,-96 145.5,-96 145.5,-102 139.5,-108 133.5,-108"/>
<text text-anchor="middle" x="111.5" y="-87.5" font-family="sans" font-size="10.00">beeswarm</text>
</g>
<!-- 3&#45;&gt;13 -->
<g id="edge19" class="edge">
<title>3&#45;&gt;13</title>
<path fill="none" stroke="grey" stroke-width="2" d="M107.74,-143.7C108.29,-135.98 108.95,-126.71 109.56,-118.11"/>
<polygon fill="grey" stroke="grey" stroke-width="2" points="113.06,-118.33 110.28,-108.1 106.07,-117.83 113.06,-118.33"/>
</g>
<!-- 4 -->
<g id="node5" class="node">
<title>4</title>
<path fill="none" stroke="#d6d856" stroke-width="2" d="M138.5,-252C138.5,-252 108.5,-252 108.5,-252 102.5,-252 96.5,-246 96.5,-240 96.5,-240 96.5,-228 96.5,-228 96.5,-222 102.5,-216 108.5,-216 108.5,-216 138.5,-216 138.5,-216 144.5,-216 150.5,-222 150.5,-228 150.5,-228 150.5,-240 150.5,-240 150.5,-246 144.5,-252 138.5,-252"/>
<text text-anchor="middle" x="123.5" y="-231.5" font-family="sans" font-size="10.00">quast</text>
</g>
<!-- 4&#45;&gt;3 -->
<g id="edge7" class="edge">
<title>4&#45;&gt;3</title>
<path fill="none" stroke="grey" stroke-width="2" d="M119.3,-215.7C117.4,-207.9 115.12,-198.51 113.02,-189.83"/>
<polygon fill="grey" stroke="grey" stroke-width="2" points="116.42,-189 110.65,-180.1 109.61,-190.65 116.42,-189"/>
</g>
<!-- 5 -->
<g id="node6" class="node">
<title>5</title>
<path fill="none" stroke="#56b9d8" stroke-width="2" d="M210.5,-324C210.5,-324 180.5,-324 180.5,-324 174.5,-324 168.5,-318 168.5,-312 168.5,-312 168.5,-300 168.5,-300 168.5,-294 174.5,-288 180.5,-288 180.5,-288 210.5,-288 210.5,-288 216.5,-288 222.5,-294 222.5,-300 222.5,-300 222.5,-312 222.5,-312 222.5,-318 216.5,-324 210.5,-324"/>
<text text-anchor="middle" x="195.5" y="-303.5" font-family="sans" font-size="10.00">racon</text>
</g>
<!-- 5&#45;&gt;4 -->
<g id="edge8" class="edge">
<title>5&#45;&gt;4</title>
<path fill="none" stroke="grey" stroke-width="2" d="M177.7,-287.7C168.9,-279.14 158.12,-268.66 148.5,-259.3"/>
<polygon fill="grey" stroke="grey" stroke-width="2" points="150.7,-256.57 141.09,-252.1 145.82,-261.58 150.7,-256.57"/>
</g>
<!-- 12 -->
<g id="node13" class="node">
<title>12</title>
<path fill="none" stroke="#56d8b9" stroke-width="2" d="M210.5,-180C210.5,-180 180.5,-180 180.5,-180 174.5,-180 168.5,-174 168.5,-168 168.5,-168 168.5,-156 168.5,-156 168.5,-150 174.5,-144 180.5,-144 180.5,-144 210.5,-144 210.5,-144 216.5,-144 222.5,-150 222.5,-156 222.5,-156 222.5,-168 222.5,-168 222.5,-174 216.5,-180 210.5,-180"/>
<text text-anchor="middle" x="195.5" y="-159.5" font-family="sans" font-size="10.00">skani</text>
</g>
<!-- 5&#45;&gt;12 -->
<g id="edge18" class="edge">
<title>5&#45;&gt;12</title>
<path fill="none" stroke="grey" stroke-width="2" d="M195.5,-287.87C195.5,-263.67 195.5,-219.21 195.5,-190.39"/>
<polygon fill="grey" stroke="grey" stroke-width="2" points="199,-190.19 195.5,-180.19 192,-190.19 199,-190.19"/>
</g>
<!-- 15 -->
<g id="node16" class="node">
<title>15</title>
<path fill="none" stroke="#b6d856" stroke-width="2" d="M283.5,-252C283.5,-252 253.5,-252 253.5,-252 247.5,-252 241.5,-246 241.5,-240 241.5,-240 241.5,-228 241.5,-228 241.5,-222 247.5,-216 253.5,-216 253.5,-216 283.5,-216 283.5,-216 289.5,-216 295.5,-222 295.5,-228 295.5,-228 295.5,-240 295.5,-240 295.5,-246 289.5,-252 283.5,-252"/>
<text text-anchor="middle" x="268.5" y="-231.5" font-family="sans" font-size="10.00">busco</text>
</g>
<!-- 5&#45;&gt;15 -->
<g id="edge21" class="edge">
<title>5&#45;&gt;15</title>
<path fill="none" stroke="grey" stroke-width="2" d="M213.54,-287.7C222.56,-279.05 233.62,-268.45 243.44,-259.03"/>
<polygon fill="grey" stroke="grey" stroke-width="2" points="245.87,-261.55 250.66,-252.1 241.02,-256.5 245.87,-261.55"/>
</g>
<!-- 6 -->
<g id="node7" class="node">
<title>6</title>
<path fill="none" stroke="#569ad8" stroke-width="2" d="M225,-540C225,-540 190,-540 190,-540 184,-540 178,-534 178,-528 178,-528 178,-516 178,-516 178,-510 184,-504 190,-504 190,-504 225,-504 225,-504 231,-504 237,-510 237,-516 237,-516 237,-528 237,-528 237,-534 231,-540 225,-540"/>
<text text-anchor="middle" x="207.5" y="-519.5" font-family="sans" font-size="10.00">reformat</text>
</g>
<!-- 6&#45;&gt;5 -->
<g id="edge11" class="edge">
<title>6&#45;&gt;5</title>
<path fill="none" stroke="grey" stroke-width="2" d="M191.89,-503.77C184.13,-494.03 175.55,-481.18 171.5,-468 157.41,-422.18 172.53,-366.39 184.34,-333.96"/>
<polygon fill="grey" stroke="grey" stroke-width="2" points="187.73,-334.89 188.01,-324.29 181.19,-332.4 187.73,-334.89"/>
</g>
<!-- 10 -->
<g id="node11" class="node">
<title>10</title>
<path fill="none" stroke="#56d87b" stroke-width="2" d="M222.5,-468C222.5,-468 192.5,-468 192.5,-468 186.5,-468 180.5,-462 180.5,-456 180.5,-456 180.5,-444 180.5,-444 180.5,-438 186.5,-432 192.5,-432 192.5,-432 222.5,-432 222.5,-432 228.5,-432 234.5,-438 234.5,-444 234.5,-444 234.5,-456 234.5,-456 234.5,-462 228.5,-468 222.5,-468"/>
<text text-anchor="middle" x="207.5" y="-447.5" font-family="sans" font-size="10.00">flye</text>
</g>
<!-- 6&#45;&gt;10 -->
<g id="edge15" class="edge">
<title>6&#45;&gt;10</title>
<path fill="none" stroke="grey" stroke-width="2" d="M207.5,-503.7C207.5,-495.98 207.5,-486.71 207.5,-478.11"/>
<polygon fill="grey" stroke="grey" stroke-width="2" points="211,-478.1 207.5,-468.1 204,-478.1 211,-478.1"/>
</g>
<!-- 11 -->
<g id="node12" class="node">
<title>11</title>
<path fill="none" stroke="#56d89a" stroke-width="2" d="M277.5,-396C277.5,-396 235.5,-396 235.5,-396 229.5,-396 223.5,-390 223.5,-384 223.5,-384 223.5,-372 223.5,-372 223.5,-366 229.5,-360 235.5,-360 235.5,-360 277.5,-360 277.5,-360 283.5,-360 289.5,-366 289.5,-372 289.5,-372 289.5,-384 289.5,-384 289.5,-390 283.5,-396 277.5,-396"/>
<text text-anchor="middle" x="256.5" y="-375.5" font-family="sans" font-size="10.00">minimap2</text>
</g>
<!-- 6&#45;&gt;11 -->
<g id="edge17" class="edge">
<title>6&#45;&gt;11</title>
<path fill="none" stroke="grey" stroke-width="2" d="M221.99,-503.98C229.62,-494.11 238.42,-481.06 243.5,-468 251.17,-448.26 254.37,-424.46 255.67,-406.44"/>
<polygon fill="grey" stroke="grey" stroke-width="2" points="259.17,-406.49 256.25,-396.31 252.18,-406.09 259.17,-406.49"/>
</g>
<!-- 7 -->
<g id="node8" class="node">
<title>7</title>
<path fill="none" stroke="#97d856" stroke-width="2" d="M226.5,-612C226.5,-612 188.5,-612 188.5,-612 182.5,-612 176.5,-606 176.5,-600 176.5,-600 176.5,-588 176.5,-588 176.5,-582 182.5,-576 188.5,-576 188.5,-576 226.5,-576 226.5,-576 232.5,-576 238.5,-582 238.5,-588 238.5,-588 238.5,-600 238.5,-600 238.5,-606 232.5,-612 226.5,-612"/>
<text text-anchor="middle" x="207.5" y="-591.5" font-family="sans" font-size="10.00">porechop</text>
</g>
<!-- 7&#45;&gt;6 -->
<g id="edge12" class="edge">
<title>7&#45;&gt;6</title>
<path fill="none" stroke="grey" stroke-width="2" d="M207.5,-575.7C207.5,-567.98 207.5,-558.71 207.5,-550.11"/>
<polygon fill="grey" stroke="grey" stroke-width="2" points="211,-550.1 207.5,-540.1 204,-550.1 211,-550.1"/>
</g>
<!-- 8 -->
<g id="node9" class="node">
<title>8</title>
<path fill="none" stroke="#59d856" stroke-width="2" d="M222.5,-684C222.5,-684 192.5,-684 192.5,-684 186.5,-684 180.5,-678 180.5,-672 180.5,-672 180.5,-660 180.5,-660 180.5,-654 186.5,-648 192.5,-648 192.5,-648 222.5,-648 222.5,-648 228.5,-648 234.5,-654 234.5,-660 234.5,-660 234.5,-672 234.5,-672 234.5,-678 228.5,-684 222.5,-684"/>
<text text-anchor="middle" x="207.5" y="-663.5" font-family="sans" font-size="10.00">unzip</text>
</g>
<!-- 8&#45;&gt;7 -->
<g id="edge13" class="edge">
<title>8&#45;&gt;7</title>
<path fill="none" stroke="grey" stroke-width="2" d="M207.5,-647.7C207.5,-639.98 207.5,-630.71 207.5,-622.11"/>
<polygon fill="grey" stroke="grey" stroke-width="2" points="211,-622.1 207.5,-612.1 204,-622.1 211,-622.1"/>
</g>
<!-- 9 -->
<g id="node10" class="node">
<title>9</title>
<path fill="none" stroke="#d89556" stroke-width="2" d="M222.5,-756C222.5,-756 192.5,-756 192.5,-756 186.5,-756 180.5,-750 180.5,-744 180.5,-744 180.5,-732 180.5,-732 180.5,-726 186.5,-720 192.5,-720 192.5,-720 222.5,-720 222.5,-720 228.5,-720 234.5,-726 234.5,-732 234.5,-732 234.5,-744 234.5,-744 234.5,-750 228.5,-756 222.5,-756"/>
<text text-anchor="middle" x="207.5" y="-735.5" font-family="sans" font-size="10.00">filtlong</text>
</g>
<!-- 9&#45;&gt;8 -->
<g id="edge14" class="edge">
<title>9&#45;&gt;8</title>
<path fill="none" stroke="grey" stroke-width="2" d="M207.5,-719.7C207.5,-711.98 207.5,-702.71 207.5,-694.11"/>
<polygon fill="grey" stroke="grey" stroke-width="2" points="211,-694.1 207.5,-684.1 204,-694.1 211,-694.1"/>
</g>
<!-- 10&#45;&gt;5 -->
<g id="edge9" class="edge">
<title>10&#45;&gt;5</title>
<path fill="none" stroke="grey" stroke-width="2" d="M206.05,-431.87C204.01,-407.67 200.25,-363.21 197.81,-334.39"/>
<polygon fill="grey" stroke="grey" stroke-width="2" points="201.28,-333.86 196.95,-324.19 194.31,-334.45 201.28,-333.86"/>
</g>
<!-- 10&#45;&gt;11 -->
<g id="edge16" class="edge">
<title>10&#45;&gt;11</title>
<path fill="none" stroke="grey" stroke-width="2" d="M219.61,-431.7C225.37,-423.47 232.36,-413.48 238.71,-404.42"/>
<polygon fill="grey" stroke="grey" stroke-width="2" points="241.66,-406.3 244.53,-396.1 235.92,-402.29 241.66,-406.3"/>
</g>
<!-- 11&#45;&gt;5 -->
<g id="edge10" class="edge">
<title>11&#45;&gt;5</title>
<path fill="none" stroke="grey" stroke-width="2" d="M241.42,-359.7C234.11,-351.3 225.19,-341.07 217.16,-331.86"/>
<polygon fill="grey" stroke="grey" stroke-width="2" points="219.61,-329.34 210.41,-324.1 214.34,-333.94 219.61,-329.34"/>
</g>
<!-- 12&#45;&gt;2 -->
<g id="edge5" class="edge">
<title>12&#45;&gt;2</title>
<path fill="none" stroke="grey" stroke-width="2" d="M194.26,-143.7C193.71,-135.98 193.05,-126.71 192.44,-118.11"/>
<polygon fill="grey" stroke="grey" stroke-width="2" points="195.93,-117.83 191.72,-108.1 188.94,-118.33 195.93,-117.83"/>
</g>
<!-- 13&#45;&gt;0 -->
<g id="edge1" class="edge">
<title>13&#45;&gt;0</title>
<path fill="none" stroke="grey" stroke-width="2" d="M121.14,-71.7C125.63,-63.64 131.06,-53.89 136.02,-44.98"/>
<polygon fill="grey" stroke="grey" stroke-width="2" points="139.16,-46.54 140.97,-36.1 133.05,-43.14 139.16,-46.54"/>
</g>
<!-- 14 -->
<g id="node15" class="node">
<title>14</title>
<path fill="none" stroke="#56d8d8" stroke-width="2" d="M320.5,-180C320.5,-180 252.5,-180 252.5,-180 246.5,-180 240.5,-174 240.5,-168 240.5,-168 240.5,-156 240.5,-156 240.5,-150 246.5,-144 252.5,-144 252.5,-144 320.5,-144 320.5,-144 326.5,-144 332.5,-150 332.5,-156 332.5,-156 332.5,-168 332.5,-168 332.5,-174 326.5,-180 320.5,-180"/>
<text text-anchor="middle" x="286.5" y="-159.5" font-family="sans" font-size="10.00">buscosummary</text>
</g>
<!-- 14&#45;&gt;0 -->
<g id="edge2" class="edge">
<title>14&#45;&gt;0</title>
<path fill="none" stroke="grey" stroke-width="2" d="M277.51,-143.91C266.99,-124.92 248.2,-94.05 226.5,-72 214.65,-59.96 199.74,-48.88 186.27,-40"/>
<polygon fill="grey" stroke="grey" stroke-width="2" points="187.98,-36.94 177.67,-34.49 184.2,-42.84 187.98,-36.94"/>
</g>
<!-- 15&#45;&gt;14 -->
<g id="edge20" class="edge">
<title>15&#45;&gt;14</title>
<path fill="none" stroke="grey" stroke-width="2" d="M272.95,-215.7C274.95,-207.9 277.37,-198.51 279.6,-189.83"/>
<polygon fill="grey" stroke="grey" stroke-width="2" points="283,-190.66 282.1,-180.1 276.22,-188.92 283,-190.66"/>
</g>
</g>
</svg>
