<?xml version="1.0" encoding="UTF-8" standalone="no"?>
<!DOCTYPE svg PUBLIC "-//W3C//DTD SVG 1.1//EN"
 "http://www.w3.org/Graphics/SVG/1.1/DTD/svg11.dtd">
<!-- Generated by graphviz version 2.43.0 (0)
 -->
<!-- Title: snakemake_dag Pages: 1 -->
<svg width="481pt" height="764pt"
 viewBox="0.00 0.00 480.50 764.00" xmlns="http://www.w3.org/2000/svg" xmlns:xlink="http://www.w3.org/1999/xlink">
<g id="graph0" class="graph" transform="scale(1 1) rotate(0) translate(4 760)">
<title>snakemake_dag</title>
<polygon fill="white" stroke="transparent" points="-4,4 -4,-760 476.5,-760 476.5,4 -4,4"/>
<!-- 0 -->
<g id="node1" class="node">
<title>0</title>
<path fill="none" stroke="#56d8d8" stroke-width="2" d="M216.5,-36C216.5,-36 186.5,-36 186.5,-36 180.5,-36 174.5,-30 174.5,-24 174.5,-24 174.5,-12 174.5,-12 174.5,-6 180.5,0 186.5,0 186.5,0 216.5,0 216.5,0 222.5,0 228.5,-6 228.5,-12 228.5,-12 228.5,-24 228.5,-24 228.5,-30 222.5,-36 216.5,-36"/>
<text text-anchor="middle" x="201.5" y="-15.5" font-family="sans" font-size="10.00">all</text>
</g>
<!-- 1 -->
<g id="node2" class="node">
<title>1</title>
<path fill="none" stroke="#56d89a" stroke-width="2" d="M47,-108C47,-108 12,-108 12,-108 6,-108 0,-102 0,-96 0,-96 0,-84 0,-84 0,-78 6,-72 12,-72 12,-72 47,-72 47,-72 53,-72 59,-78 59,-84 59,-84 59,-96 59,-96 59,-102 53,-108 47,-108"/>
<text text-anchor="middle" x="29.5" y="-87.5" font-family="sans" font-size="10.00">nanoplot</text>
</g>
<!-- 1&#45;&gt;0 -->
<g id="edge6" class="edge">
<title>1&#45;&gt;0</title>
<path fill="none" stroke="grey" stroke-width="2" d="M59.07,-76.97C88.4,-65.03 133.42,-46.71 164.97,-33.87"/>
<polygon fill="grey" stroke="grey" stroke-width="2" points="166.36,-37.08 174.3,-30.07 163.72,-30.6 166.36,-37.08"/>
</g>
<!-- 2 -->
<g id="node3" class="node">
<title>2</title>
<path fill="none" stroke="#56b9d8" stroke-width="2" d="M129.5,-756C129.5,-756 99.5,-756 99.5,-756 93.5,-756 87.5,-750 87.5,-744 87.5,-744 87.5,-732 87.5,-732 87.5,-726 93.5,-720 99.5,-720 99.5,-720 129.5,-720 129.5,-720 135.5,-720 141.5,-726 141.5,-732 141.5,-732 141.5,-744 141.5,-744 141.5,-750 135.5,-756 129.5,-756"/>
<text text-anchor="middle" x="114.5" y="-735.5" font-family="sans" font-size="10.00">filtlong</text>
</g>
<!-- 2&#45;&gt;0 -->
<g id="edge8" class="edge">
<title>2&#45;&gt;0</title>
<path fill="none" stroke="grey" stroke-width="2" d="M109.04,-719.71C101.15,-693.18 87.5,-640.67 87.5,-595 87.5,-595 87.5,-595 87.5,-161 87.5,-110 132.77,-66.88 166.26,-41.97"/>
<polygon fill="grey" stroke="grey" stroke-width="2" points="168.42,-44.73 174.48,-36.04 164.33,-39.05 168.42,-44.73"/>
</g>
<!-- 5 -->
<g id="node6" class="node">
<title>5</title>
<path fill="none" stroke="#d6d856" stroke-width="2" d="M167.5,-684C167.5,-684 137.5,-684 137.5,-684 131.5,-684 125.5,-678 125.5,-672 125.5,-672 125.5,-660 125.5,-660 125.5,-654 131.5,-648 137.5,-648 137.5,-648 167.5,-648 167.5,-648 173.5,-648 179.5,-654 179.5,-660 179.5,-660 179.5,-672 179.5,-672 179.5,-678 173.5,-684 167.5,-684"/>
<text text-anchor="middle" x="152.5" y="-663.5" font-family="sans" font-size="10.00">unzip</text>
</g>
<!-- 2&#45;&gt;5 -->
<g id="edge12" class="edge">
<title>2&#45;&gt;5</title>
<path fill="none" stroke="grey" stroke-width="2" d="M123.89,-719.7C128.26,-711.64 133.56,-701.89 138.4,-692.98"/>
<polygon fill="grey" stroke="grey" stroke-width="2" points="141.52,-694.56 143.21,-684.1 135.37,-691.22 141.52,-694.56"/>
</g>
<!-- 3 -->
<g id="node4" class="node">
<title>3</title>
<path fill="none" stroke="#d8b456" stroke-width="2" d="M181,-540C181,-540 146,-540 146,-540 140,-540 134,-534 134,-528 134,-528 134,-516 134,-516 134,-510 140,-504 146,-504 146,-504 181,-504 181,-504 187,-504 193,-510 193,-516 193,-516 193,-528 193,-528 193,-534 187,-540 181,-540"/>
<text text-anchor="middle" x="163.5" y="-519.5" font-family="sans" font-size="10.00">reformat</text>
</g>
<!-- 3&#45;&gt;0 -->
<g id="edge2" class="edge">
<title>3&#45;&gt;0</title>
<path fill="none" stroke="grey" stroke-width="2" d="M155.81,-503.91C144.71,-477.62 125.5,-425.45 125.5,-379 125.5,-379 125.5,-379 125.5,-161 125.5,-115.64 156.02,-70.75 178.38,-43.95"/>
<polygon fill="grey" stroke="grey" stroke-width="2" points="181.14,-46.09 185.01,-36.23 175.84,-41.53 181.14,-46.09"/>
</g>
<!-- 6 -->
<g id="node7" class="node">
<title>6</title>
<path fill="none" stroke="#d89556" stroke-width="2" d="M235.5,-324C235.5,-324 205.5,-324 205.5,-324 199.5,-324 193.5,-318 193.5,-312 193.5,-312 193.5,-300 193.5,-300 193.5,-294 199.5,-288 205.5,-288 205.5,-288 235.5,-288 235.5,-288 241.5,-288 247.5,-294 247.5,-300 247.5,-300 247.5,-312 247.5,-312 247.5,-318 241.5,-324 235.5,-324"/>
<text text-anchor="middle" x="220.5" y="-303.5" font-family="sans" font-size="10.00">racon</text>
</g>
<!-- 3&#45;&gt;6 -->
<g id="edge13" class="edge">
<title>3&#45;&gt;6</title>
<path fill="none" stroke="grey" stroke-width="2" d="M166.72,-503.84C170.19,-485.84 176.1,-456.78 182.5,-432 191.32,-397.84 203.46,-359.03 211.62,-333.85"/>
<polygon fill="grey" stroke="grey" stroke-width="2" points="214.97,-334.85 214.75,-324.26 208.32,-332.68 214.97,-334.85"/>
</g>
<!-- 7 -->
<g id="node8" class="node">
<title>7</title>
<path fill="none" stroke="#d87556" stroke-width="2" d="M233.5,-468C233.5,-468 203.5,-468 203.5,-468 197.5,-468 191.5,-462 191.5,-456 191.5,-456 191.5,-444 191.5,-444 191.5,-438 197.5,-432 203.5,-432 203.5,-432 233.5,-432 233.5,-432 239.5,-432 245.5,-438 245.5,-444 245.5,-444 245.5,-456 245.5,-456 245.5,-462 239.5,-468 233.5,-468"/>
<text text-anchor="middle" x="218.5" y="-447.5" font-family="sans" font-size="10.00">flye</text>
</g>
<!-- 3&#45;&gt;7 -->
<g id="edge16" class="edge">
<title>3&#45;&gt;7</title>
<path fill="none" stroke="grey" stroke-width="2" d="M177.1,-503.7C183.62,-495.39 191.57,-485.28 198.75,-476.14"/>
<polygon fill="grey" stroke="grey" stroke-width="2" points="201.63,-478.13 205.06,-468.1 196.13,-473.81 201.63,-478.13"/>
</g>
<!-- 8 -->
<g id="node9" class="node">
<title>8</title>
<path fill="none" stroke="#d85656" stroke-width="2" d="M294.5,-396C294.5,-396 252.5,-396 252.5,-396 246.5,-396 240.5,-390 240.5,-384 240.5,-384 240.5,-372 240.5,-372 240.5,-366 246.5,-360 252.5,-360 252.5,-360 294.5,-360 294.5,-360 300.5,-360 306.5,-366 306.5,-372 306.5,-372 306.5,-384 306.5,-384 306.5,-390 300.5,-396 294.5,-396"/>
<text text-anchor="middle" x="273.5" y="-375.5" font-family="sans" font-size="10.00">minimap2</text>
</g>
<!-- 3&#45;&gt;8 -->
<g id="edge17" class="edge">
<title>3&#45;&gt;8</title>
<path fill="none" stroke="grey" stroke-width="2" d="M193.37,-510.98C213.68,-502.64 239.49,-488.73 254.5,-468 267.5,-450.05 271.96,-425.06 273.33,-406.12"/>
<polygon fill="grey" stroke="grey" stroke-width="2" points="276.83,-406.2 273.82,-396.04 269.84,-405.86 276.83,-406.2"/>
</g>
<!-- 4 -->
<g id="node5" class="node">
<title>4</title>
<path fill="none" stroke="#56d87b" stroke-width="2" d="M177.5,-612C177.5,-612 139.5,-612 139.5,-612 133.5,-612 127.5,-606 127.5,-600 127.5,-600 127.5,-588 127.5,-588 127.5,-582 133.5,-576 139.5,-576 139.5,-576 177.5,-576 177.5,-576 183.5,-576 189.5,-582 189.5,-588 189.5,-588 189.5,-600 189.5,-600 189.5,-606 183.5,-612 177.5,-612"/>
<text text-anchor="middle" x="158.5" y="-591.5" font-family="sans" font-size="10.00">porechop</text>
</g>
<!-- 4&#45;&gt;3 -->
<g id="edge10" class="edge">
<title>4&#45;&gt;3</title>
<path fill="none" stroke="grey" stroke-width="2" d="M159.74,-575.7C160.29,-567.98 160.95,-558.71 161.56,-550.11"/>
<polygon fill="grey" stroke="grey" stroke-width="2" points="165.06,-550.33 162.28,-540.1 158.07,-549.83 165.06,-550.33"/>
</g>
<!-- 5&#45;&gt;4 -->
<g id="edge11" class="edge">
<title>5&#45;&gt;4</title>
<path fill="none" stroke="grey" stroke-width="2" d="M153.98,-647.7C154.64,-639.98 155.44,-630.71 156.18,-622.11"/>
<polygon fill="grey" stroke="grey" stroke-width="2" points="159.67,-622.37 157.03,-612.1 152.69,-621.77 159.67,-622.37"/>
</g>
<!-- 6&#45;&gt;0 -->
<g id="edge1" class="edge">
<title>6&#45;&gt;0</title>
<path fill="none" stroke="grey" stroke-width="2" d="M213.93,-287.94C205.16,-264.18 190.09,-219.58 184.5,-180 177.9,-133.24 187.29,-78.51 194.52,-46.41"/>
<polygon fill="grey" stroke="grey" stroke-width="2" points="197.98,-46.98 196.86,-36.44 191.17,-45.38 197.98,-46.98"/>
</g>
<!-- 9 -->
<g id="node10" class="node">
<title>9</title>
<path fill="none" stroke="#59d856" stroke-width="2" d="M235.5,-180C235.5,-180 205.5,-180 205.5,-180 199.5,-180 193.5,-174 193.5,-168 193.5,-168 193.5,-156 193.5,-156 193.5,-150 199.5,-144 205.5,-144 205.5,-144 235.5,-144 235.5,-144 241.5,-144 247.5,-150 247.5,-156 247.5,-156 247.5,-168 247.5,-168 247.5,-174 241.5,-180 235.5,-180"/>
<text text-anchor="middle" x="220.5" y="-159.5" font-family="sans" font-size="10.00">skani</text>
</g>
<!-- 6&#45;&gt;9 -->
<g id="edge19" class="edge">
<title>6&#45;&gt;9</title>
<path fill="none" stroke="grey" stroke-width="2" d="M220.5,-287.87C220.5,-263.67 220.5,-219.21 220.5,-190.39"/>
<polygon fill="grey" stroke="grey" stroke-width="2" points="224,-190.19 220.5,-180.19 217,-190.19 224,-190.19"/>
</g>
<!-- 11 -->
<g id="node12" class="node">
<title>11</title>
<path fill="none" stroke="#b6d856" stroke-width="2" d="M307.5,-252C307.5,-252 277.5,-252 277.5,-252 271.5,-252 265.5,-246 265.5,-240 265.5,-240 265.5,-228 265.5,-228 265.5,-222 271.5,-216 277.5,-216 277.5,-216 307.5,-216 307.5,-216 313.5,-216 319.5,-222 319.5,-228 319.5,-228 319.5,-240 319.5,-240 319.5,-246 313.5,-252 307.5,-252"/>
<text text-anchor="middle" x="292.5" y="-231.5" font-family="sans" font-size="10.00">quast</text>
</g>
<!-- 6&#45;&gt;11 -->
<g id="edge21" class="edge">
<title>6&#45;&gt;11</title>
<path fill="none" stroke="grey" stroke-width="2" d="M238.3,-287.7C247.1,-279.14 257.88,-268.66 267.5,-259.3"/>
<polygon fill="grey" stroke="grey" stroke-width="2" points="270.18,-261.58 274.91,-252.1 265.3,-256.57 270.18,-261.58"/>
</g>
<!-- 15 -->
<g id="node16" class="node">
<title>15</title>
<path fill="none" stroke="#569ad8" stroke-width="2" d="M410.5,-252C410.5,-252 380.5,-252 380.5,-252 374.5,-252 368.5,-246 368.5,-240 368.5,-240 368.5,-228 368.5,-228 368.5,-222 374.5,-216 380.5,-216 380.5,-216 410.5,-216 410.5,-216 416.5,-216 422.5,-222 422.5,-228 422.5,-228 422.5,-240 422.5,-240 422.5,-246 416.5,-252 410.5,-252"/>
<text text-anchor="middle" x="395.5" y="-231.5" font-family="sans" font-size="10.00">busco</text>
</g>
<!-- 6&#45;&gt;15 -->
<g id="edge26" class="edge">
<title>6&#45;&gt;15</title>
<path fill="none" stroke="grey" stroke-width="2" d="M247.84,-294.06C277.77,-282.09 325.88,-262.85 359.01,-249.6"/>
<polygon fill="grey" stroke="grey" stroke-width="2" points="360.36,-252.82 368.35,-245.86 357.76,-246.32 360.36,-252.82"/>
</g>
<!-- 7&#45;&gt;6 -->
<g id="edge15" class="edge">
<title>7&#45;&gt;6</title>
<path fill="none" stroke="grey" stroke-width="2" d="M218.74,-431.87C219.08,-407.67 219.71,-363.21 220.11,-334.39"/>
<polygon fill="grey" stroke="grey" stroke-width="2" points="223.62,-334.24 220.26,-324.19 216.62,-334.14 223.62,-334.24"/>
</g>
<!-- 7&#45;&gt;8 -->
<g id="edge18" class="edge">
<title>7&#45;&gt;8</title>
<path fill="none" stroke="grey" stroke-width="2" d="M232.1,-431.7C238.62,-423.39 246.57,-413.28 253.75,-404.14"/>
<polygon fill="grey" stroke="grey" stroke-width="2" points="256.63,-406.13 260.06,-396.1 251.13,-401.81 256.63,-406.13"/>
</g>
<!-- 8&#45;&gt;6 -->
<g id="edge14" class="edge">
<title>8&#45;&gt;6</title>
<path fill="none" stroke="grey" stroke-width="2" d="M260.4,-359.7C254.11,-351.39 246.45,-341.28 239.54,-332.14"/>
<polygon fill="grey" stroke="grey" stroke-width="2" points="242.28,-329.96 233.45,-324.1 236.7,-334.19 242.28,-329.96"/>
</g>
<!-- 9&#45;&gt;0 -->
<g id="edge5" class="edge">
<title>9&#45;&gt;0</title>
<path fill="none" stroke="grey" stroke-width="2" d="M218.21,-143.87C214.97,-119.67 209.02,-75.21 205.17,-46.39"/>
<polygon fill="grey" stroke="grey" stroke-width="2" points="208.6,-45.64 203.8,-36.19 201.66,-46.57 208.6,-45.64"/>
</g>
<!-- 12 -->
<g id="node13" class="node">
<title>12</title>
<path fill="none" stroke="#567bd8" stroke-width="2" d="M271.5,-108C271.5,-108 241.5,-108 241.5,-108 235.5,-108 229.5,-102 229.5,-96 229.5,-96 229.5,-84 229.5,-84 229.5,-78 235.5,-72 241.5,-72 241.5,-72 271.5,-72 271.5,-72 277.5,-72 283.5,-78 283.5,-84 283.5,-84 283.5,-96 283.5,-96 283.5,-102 277.5,-108 271.5,-108"/>
<text text-anchor="middle" x="256.5" y="-87.5" font-family="sans" font-size="10.00">xlsx</text>
</g>
<!-- 9&#45;&gt;12 -->
<g id="edge22" class="edge">
<title>9&#45;&gt;12</title>
<path fill="none" stroke="grey" stroke-width="2" d="M229.4,-143.7C233.5,-135.73 238.45,-126.1 242.99,-117.26"/>
<polygon fill="grey" stroke="grey" stroke-width="2" points="246.24,-118.6 247.7,-108.1 240.02,-115.4 246.24,-118.6"/>
</g>
<!-- 10 -->
<g id="node11" class="node">
<title>10</title>
<path fill="none" stroke="#97d856" stroke-width="2" d="M342.5,-180C342.5,-180 278.5,-180 278.5,-180 272.5,-180 266.5,-174 266.5,-168 266.5,-168 266.5,-156 266.5,-156 266.5,-150 272.5,-144 278.5,-144 278.5,-144 342.5,-144 342.5,-144 348.5,-144 354.5,-150 354.5,-156 354.5,-156 354.5,-168 354.5,-168 354.5,-174 348.5,-180 342.5,-180"/>
<text text-anchor="middle" x="310.5" y="-159.5" font-family="sans" font-size="10.00">summarytable</text>
</g>
<!-- 10&#45;&gt;0 -->
<g id="edge4" class="edge">
<title>10&#45;&gt;0</title>
<path fill="none" stroke="grey" stroke-width="2" d="M311.04,-143.97C310.82,-124.76 307.83,-93.4 292.5,-72 279.2,-53.43 257.22,-40.37 238.19,-31.86"/>
<polygon fill="grey" stroke="grey" stroke-width="2" points="239.43,-28.58 228.86,-27.93 236.72,-35.03 239.43,-28.58"/>
</g>
<!-- 10&#45;&gt;12 -->
<g id="edge23" class="edge">
<title>10&#45;&gt;12</title>
<path fill="none" stroke="grey" stroke-width="2" d="M297.15,-143.7C290.74,-135.39 282.94,-125.28 275.89,-116.14"/>
<polygon fill="grey" stroke="grey" stroke-width="2" points="278.57,-113.88 269.69,-108.1 273.03,-118.16 278.57,-113.88"/>
</g>
<!-- 13 -->
<g id="node14" class="node">
<title>13</title>
<path fill="none" stroke="#56d8b9" stroke-width="2" d="M395.5,-108C395.5,-108 351.5,-108 351.5,-108 345.5,-108 339.5,-102 339.5,-96 339.5,-96 339.5,-84 339.5,-84 339.5,-78 345.5,-72 351.5,-72 351.5,-72 395.5,-72 395.5,-72 401.5,-72 407.5,-78 407.5,-84 407.5,-84 407.5,-96 407.5,-96 407.5,-102 401.5,-108 395.5,-108"/>
<text text-anchor="middle" x="373.5" y="-87.5" font-family="sans" font-size="10.00">beeswarm</text>
</g>
<!-- 10&#45;&gt;13 -->
<g id="edge24" class="edge">
<title>10&#45;&gt;13</title>
<path fill="none" stroke="grey" stroke-width="2" d="M326.07,-143.7C333.7,-135.22 343.02,-124.86 351.38,-115.58"/>
<polygon fill="grey" stroke="grey" stroke-width="2" points="354.02,-117.88 358.11,-108.1 348.81,-113.2 354.02,-117.88"/>
</g>
<!-- 11&#45;&gt;10 -->
<g id="edge20" class="edge">
<title>11&#45;&gt;10</title>
<path fill="none" stroke="grey" stroke-width="2" d="M296.95,-215.7C298.95,-207.9 301.37,-198.51 303.6,-189.83"/>
<polygon fill="grey" stroke="grey" stroke-width="2" points="307,-190.66 306.1,-180.1 300.22,-188.92 307,-190.66"/>
</g>
<!-- 12&#45;&gt;0 -->
<g id="edge9" class="edge">
<title>12&#45;&gt;0</title>
<path fill="none" stroke="grey" stroke-width="2" d="M242.9,-71.7C236.38,-63.39 228.43,-53.28 221.25,-44.14"/>
<polygon fill="grey" stroke="grey" stroke-width="2" points="223.87,-41.81 214.94,-36.1 218.37,-46.13 223.87,-41.81"/>
</g>
<!-- 13&#45;&gt;0 -->
<g id="edge7" class="edge">
<title>13&#45;&gt;0</title>
<path fill="none" stroke="grey" stroke-width="2" d="M339.11,-75C309.95,-63.14 268.24,-46.16 238.4,-34.02"/>
<polygon fill="grey" stroke="grey" stroke-width="2" points="239.35,-30.62 228.77,-30.1 236.71,-37.11 239.35,-30.62"/>
</g>
<!-- 14 -->
<g id="node15" class="node">
<title>14</title>
<path fill="none" stroke="#78d856" stroke-width="2" d="M460.5,-180C460.5,-180 392.5,-180 392.5,-180 386.5,-180 380.5,-174 380.5,-168 380.5,-168 380.5,-156 380.5,-156 380.5,-150 386.5,-144 392.5,-144 392.5,-144 460.5,-144 460.5,-144 466.5,-144 472.5,-150 472.5,-156 472.5,-156 472.5,-168 472.5,-168 472.5,-174 466.5,-180 460.5,-180"/>
<text text-anchor="middle" x="426.5" y="-159.5" font-family="sans" font-size="10.00">buscosummary</text>
</g>
<!-- 14&#45;&gt;0 -->
<g id="edge3" class="edge">
<title>14&#45;&gt;0</title>
<path fill="none" stroke="grey" stroke-width="2" d="M429.83,-143.99C432.64,-124.21 433.84,-91.75 416.5,-72 393.39,-45.67 294.21,-29.97 238.99,-23.11"/>
<polygon fill="grey" stroke="grey" stroke-width="2" points="239.24,-19.61 228.89,-21.89 238.4,-26.56 239.24,-19.61"/>
</g>
<!-- 15&#45;&gt;14 -->
<g id="edge25" class="edge">
<title>15&#45;&gt;14</title>
<path fill="none" stroke="grey" stroke-width="2" d="M403.16,-215.7C406.69,-207.73 410.96,-198.1 414.87,-189.26"/>
<polygon fill="grey" stroke="grey" stroke-width="2" points="418.08,-190.67 418.93,-180.1 411.68,-187.83 418.08,-190.67"/>
</g>
</g>
</svg>
