<?xml version="1.0" encoding="UTF-8" standalone="no"?>
<!DOCTYPE svg PUBLIC "-//W3C//DTD SVG 1.1//EN"
 "http://www.w3.org/Graphics/SVG/1.1/DTD/svg11.dtd">
<!-- Generated by graphviz version 2.43.0 (0)
 -->
<!-- Title: snakemake_dag Pages: 1 -->
<svg width="2895pt" height="481pt"
 viewBox="0.00 0.00 2895.00 481.00" xmlns="http://www.w3.org/2000/svg" xmlns:xlink="http://www.w3.org/1999/xlink">
<g id="graph0" class="graph" transform="scale(1 1) rotate(0) translate(4 477)">
<title>snakemake_dag</title>
<polygon fill="white" stroke="transparent" points="-4,4 -4,-477 2891,-477 2891,4 -4,4"/>
<!-- 0 -->
<g id="node1" class="node">
<title>0</title>
<path fill="none" stroke="#d89c56" stroke-width="2" d="M2353,-36C2353,-36 2323,-36 2323,-36 2317,-36 2311,-30 2311,-24 2311,-24 2311,-12 2311,-12 2311,-6 2317,0 2323,0 2323,0 2353,0 2353,0 2359,0 2365,-6 2365,-12 2365,-12 2365,-24 2365,-24 2365,-30 2359,-36 2353,-36"/>
<text text-anchor="middle" x="2338" y="-15.5" font-family="sans" font-size="10.00">all</text>
</g>
<!-- 1 -->
<g id="node2" class="node">
<title>1</title>
<path fill="none" stroke="#68d856" stroke-width="2" stroke-dasharray="5,2" d="M701,-108C701,-108 671,-108 671,-108 665,-108 659,-102 659,-96 659,-96 659,-84 659,-84 659,-78 665,-72 671,-72 671,-72 701,-72 701,-72 707,-72 713,-78 713,-84 713,-84 713,-96 713,-96 713,-102 707,-108 701,-108"/>
<text text-anchor="middle" x="686" y="-87.5" font-family="sans" font-size="10.00">multiqc</text>
</g>
<!-- 1&#45;&gt;0 -->
<g id="edge1" class="edge">
<title>1&#45;&gt;0</title>
<path fill="none" stroke="grey" stroke-width="2" d="M713.3,-87.84C907.29,-79.62 2076.18,-30.09 2300.71,-20.58"/>
<polygon fill="grey" stroke="grey" stroke-width="2" points="2301.13,-24.07 2310.98,-20.15 2300.84,-17.07 2301.13,-24.07"/>
</g>
<!-- 2 -->
<g id="node3" class="node">
<title>2</title>
<path fill="none" stroke="#d8bc56" stroke-width="2" stroke-dasharray="5,2" d="M804,-185C804,-185 568,-185 568,-185 562,-185 556,-179 556,-173 556,-173 556,-156 556,-156 556,-150 562,-144 568,-144 568,-144 804,-144 804,-144 810,-144 816,-150 816,-156 816,-156 816,-173 816,-173 816,-179 810,-185 804,-185"/>
<text text-anchor="middle" x="686" y="-173" font-family="sans" font-size="10.00">fastqc</text>
<text text-anchor="middle" x="686" y="-162" font-family="sans" font-size="10.00">con: 1</text>
<text text-anchor="middle" x="686" y="-151" font-family="sans" font-size="10.00">names: 070_001_240321_001_0355_099_01_4691</text>
</g>
<!-- 2&#45;&gt;1 -->
<g id="edge17" class="edge">
<title>2&#45;&gt;1</title>
<path fill="none" stroke="grey" stroke-width="2" d="M686,-143.69C686,-135.91 686,-126.84 686,-118.45"/>
<polygon fill="grey" stroke="grey" stroke-width="2" points="689.5,-118.32 686,-108.32 682.5,-118.32 689.5,-118.32"/>
</g>
<!-- 3 -->
<g id="node4" class="node">
<title>3</title>
<path fill="none" stroke="#d8bc56" stroke-width="2" stroke-dasharray="5,2" d="M1082,-185C1082,-185 846,-185 846,-185 840,-185 834,-179 834,-173 834,-173 834,-156 834,-156 834,-150 840,-144 846,-144 846,-144 1082,-144 1082,-144 1088,-144 1094,-150 1094,-156 1094,-156 1094,-173 1094,-173 1094,-179 1088,-185 1082,-185"/>
<text text-anchor="middle" x="964" y="-173" font-family="sans" font-size="10.00">fastqc</text>
<text text-anchor="middle" x="964" y="-162" font-family="sans" font-size="10.00">con: 2</text>
<text text-anchor="middle" x="964" y="-151" font-family="sans" font-size="10.00">names: 070_001_240321_001_0355_099_01_4691</text>
</g>
<!-- 3&#45;&gt;1 -->
<g id="edge18" class="edge">
<title>3&#45;&gt;1</title>
<path fill="none" stroke="grey" stroke-width="2" d="M889.14,-143.98C835.35,-129.95 765.16,-111.65 722.95,-100.64"/>
<polygon fill="grey" stroke="grey" stroke-width="2" points="723.66,-97.2 713.1,-98.07 721.89,-103.98 723.66,-97.2"/>
</g>
<!-- 4 -->
<g id="node5" class="node">
<title>4</title>
<path fill="none" stroke="#d8bc56" stroke-width="2" stroke-dasharray="5,2" d="M248,-185C248,-185 12,-185 12,-185 6,-185 0,-179 0,-173 0,-173 0,-156 0,-156 0,-150 6,-144 12,-144 12,-144 248,-144 248,-144 254,-144 260,-150 260,-156 260,-156 260,-173 260,-173 260,-179 254,-185 248,-185"/>
<text text-anchor="middle" x="130" y="-173" font-family="sans" font-size="10.00">fastqc</text>
<text text-anchor="middle" x="130" y="-162" font-family="sans" font-size="10.00">con: 1</text>
<text text-anchor="middle" x="130" y="-151" font-family="sans" font-size="10.00">names: 070_001_240321_001_0356_099_01_4691</text>
</g>
<!-- 4&#45;&gt;1 -->
<g id="edge19" class="edge">
<title>4&#45;&gt;1</title>
<path fill="none" stroke="grey" stroke-width="2" d="M260.21,-145.18C263.17,-144.78 266.1,-144.39 269,-144 408.96,-125.29 575.56,-104.59 648.58,-95.59"/>
<polygon fill="grey" stroke="grey" stroke-width="2" points="649.16,-99.05 658.66,-94.35 648.31,-92.1 649.16,-99.05"/>
</g>
<!-- 5 -->
<g id="node6" class="node">
<title>5</title>
<path fill="none" stroke="#d8bc56" stroke-width="2" stroke-dasharray="5,2" d="M526,-185C526,-185 290,-185 290,-185 284,-185 278,-179 278,-173 278,-173 278,-156 278,-156 278,-150 284,-144 290,-144 290,-144 526,-144 526,-144 532,-144 538,-150 538,-156 538,-156 538,-173 538,-173 538,-179 532,-185 526,-185"/>
<text text-anchor="middle" x="408" y="-173" font-family="sans" font-size="10.00">fastqc</text>
<text text-anchor="middle" x="408" y="-162" font-family="sans" font-size="10.00">con: 2</text>
<text text-anchor="middle" x="408" y="-151" font-family="sans" font-size="10.00">names: 070_001_240321_001_0356_099_01_4691</text>
</g>
<!-- 5&#45;&gt;1 -->
<g id="edge20" class="edge">
<title>5&#45;&gt;1</title>
<path fill="none" stroke="grey" stroke-width="2" d="M482.86,-143.98C536.65,-129.95 606.84,-111.65 649.05,-100.64"/>
<polygon fill="grey" stroke="grey" stroke-width="2" points="650.11,-103.98 658.9,-98.07 648.34,-97.2 650.11,-103.98"/>
</g>
<!-- 6 -->
<g id="node7" class="node">
<title>6</title>
<path fill="none" stroke="#56d86b" stroke-width="2" stroke-dasharray="5,2" d="M1303,-108C1303,-108 1273,-108 1273,-108 1267,-108 1261,-102 1261,-96 1261,-96 1261,-84 1261,-84 1261,-78 1267,-72 1273,-72 1273,-72 1303,-72 1303,-72 1309,-72 1315,-78 1315,-84 1315,-84 1315,-96 1315,-96 1315,-102 1309,-108 1303,-108"/>
<text text-anchor="middle" x="1288" y="-87.5" font-family="sans" font-size="10.00">Krona</text>
</g>
<!-- 6&#45;&gt;0 -->
<g id="edge2" class="edge">
<title>6&#45;&gt;0</title>
<path fill="none" stroke="grey" stroke-width="2" d="M1315.01,-87.2C1458.71,-77.62 2133.2,-32.65 2300.42,-21.51"/>
<polygon fill="grey" stroke="grey" stroke-width="2" points="2300.94,-24.98 2310.69,-20.82 2300.48,-17.99 2300.94,-24.98"/>
</g>
<!-- 7 -->
<g id="node8" class="node">
<title>7</title>
<path fill="none" stroke="#56d88a" stroke-width="2" stroke-dasharray="5,2" d="M1360,-185C1360,-185 1124,-185 1124,-185 1118,-185 1112,-179 1112,-173 1112,-173 1112,-156 1112,-156 1112,-150 1118,-144 1124,-144 1124,-144 1360,-144 1360,-144 1366,-144 1372,-150 1372,-156 1372,-156 1372,-173 1372,-173 1372,-179 1366,-185 1360,-185"/>
<text text-anchor="middle" x="1242" y="-173" font-family="sans" font-size="10.00">Kraken2</text>
<text text-anchor="middle" x="1242" y="-162" font-family="sans" font-size="10.00">con: 1</text>
<text text-anchor="middle" x="1242" y="-151" font-family="sans" font-size="10.00">names: 070_001_240321_001_0355_099_01_4691</text>
</g>
<!-- 7&#45;&gt;6 -->
<g id="edge21" class="edge">
<title>7&#45;&gt;6</title>
<path fill="none" stroke="grey" stroke-width="2" d="M1254.57,-143.69C1259.84,-135.39 1266.03,-125.63 1271.64,-116.78"/>
<polygon fill="grey" stroke="grey" stroke-width="2" points="1274.61,-118.64 1277.01,-108.32 1268.7,-114.89 1274.61,-118.64"/>
</g>
<!-- 8 -->
<g id="node9" class="node">
<title>8</title>
<path fill="none" stroke="#56d86b" stroke-width="2" stroke-dasharray="5,2" d="M1735,-108C1735,-108 1705,-108 1705,-108 1699,-108 1693,-102 1693,-96 1693,-96 1693,-84 1693,-84 1693,-78 1699,-72 1705,-72 1705,-72 1735,-72 1735,-72 1741,-72 1747,-78 1747,-84 1747,-84 1747,-96 1747,-96 1747,-102 1741,-108 1735,-108"/>
<text text-anchor="middle" x="1720" y="-87.5" font-family="sans" font-size="10.00">Krona</text>
</g>
<!-- 8&#45;&gt;0 -->
<g id="edge3" class="edge">
<title>8&#45;&gt;0</title>
<path fill="none" stroke="grey" stroke-width="2" d="M1747.35,-85.9C1846.57,-74.66 2187.65,-36.03 2301.03,-23.19"/>
<polygon fill="grey" stroke="grey" stroke-width="2" points="2301.42,-26.67 2310.96,-22.06 2300.63,-19.71 2301.42,-26.67"/>
</g>
<!-- 9 -->
<g id="node10" class="node">
<title>9</title>
<path fill="none" stroke="#56d88a" stroke-width="2" stroke-dasharray="5,2" d="M1638,-185C1638,-185 1402,-185 1402,-185 1396,-185 1390,-179 1390,-173 1390,-173 1390,-156 1390,-156 1390,-150 1396,-144 1402,-144 1402,-144 1638,-144 1638,-144 1644,-144 1650,-150 1650,-156 1650,-156 1650,-173 1650,-173 1650,-179 1644,-185 1638,-185"/>
<text text-anchor="middle" x="1520" y="-173" font-family="sans" font-size="10.00">Kraken2</text>
<text text-anchor="middle" x="1520" y="-162" font-family="sans" font-size="10.00">con: 2</text>
<text text-anchor="middle" x="1520" y="-151" font-family="sans" font-size="10.00">names: 070_001_240321_001_0355_099_01_4691</text>
</g>
<!-- 9&#45;&gt;8 -->
<g id="edge22" class="edge">
<title>9&#45;&gt;8</title>
<path fill="none" stroke="grey" stroke-width="2" d="M1573.86,-143.98C1608.52,-131.41 1652.65,-115.41 1683.31,-104.3"/>
<polygon fill="grey" stroke="grey" stroke-width="2" points="1684.55,-107.57 1692.76,-100.88 1682.16,-100.99 1684.55,-107.57"/>
</g>
<!-- 10 -->
<g id="node11" class="node">
<title>10</title>
<path fill="none" stroke="#56d86b" stroke-width="2" stroke-dasharray="5,2" d="M1987,-108C1987,-108 1957,-108 1957,-108 1951,-108 1945,-102 1945,-96 1945,-96 1945,-84 1945,-84 1945,-78 1951,-72 1957,-72 1957,-72 1987,-72 1987,-72 1993,-72 1999,-78 1999,-84 1999,-84 1999,-96 1999,-96 1999,-102 1993,-108 1987,-108"/>
<text text-anchor="middle" x="1972" y="-87.5" font-family="sans" font-size="10.00">Krona</text>
</g>
<!-- 10&#45;&gt;0 -->
<g id="edge4" class="edge">
<title>10&#45;&gt;0</title>
<path fill="none" stroke="grey" stroke-width="2" d="M1999.21,-83.8C2063.79,-71.44 2226.43,-40.34 2300.37,-26.2"/>
<polygon fill="grey" stroke="grey" stroke-width="2" points="2301.45,-29.55 2310.61,-24.24 2300.13,-22.68 2301.45,-29.55"/>
</g>
<!-- 11 -->
<g id="node12" class="node">
<title>11</title>
<path fill="none" stroke="#56d88a" stroke-width="2" stroke-dasharray="5,2" d="M1916,-185C1916,-185 1680,-185 1680,-185 1674,-185 1668,-179 1668,-173 1668,-173 1668,-156 1668,-156 1668,-150 1674,-144 1680,-144 1680,-144 1916,-144 1916,-144 1922,-144 1928,-150 1928,-156 1928,-156 1928,-173 1928,-173 1928,-179 1922,-185 1916,-185"/>
<text text-anchor="middle" x="1798" y="-173" font-family="sans" font-size="10.00">Kraken2</text>
<text text-anchor="middle" x="1798" y="-162" font-family="sans" font-size="10.00">con: 1</text>
<text text-anchor="middle" x="1798" y="-151" font-family="sans" font-size="10.00">names: 070_001_240321_001_0356_099_01_4691</text>
</g>
<!-- 11&#45;&gt;10 -->
<g id="edge23" class="edge">
<title>11&#45;&gt;10</title>
<path fill="none" stroke="grey" stroke-width="2" d="M1845.09,-143.88C1873.47,-132.06 1909.08,-117.22 1935.35,-106.27"/>
<polygon fill="grey" stroke="grey" stroke-width="2" points="1937.05,-109.36 1944.93,-102.28 1934.35,-102.89 1937.05,-109.36"/>
</g>
<!-- 12 -->
<g id="node13" class="node">
<title>12</title>
<path fill="none" stroke="#56d86b" stroke-width="2" stroke-dasharray="5,2" d="M2149,-108C2149,-108 2119,-108 2119,-108 2113,-108 2107,-102 2107,-96 2107,-96 2107,-84 2107,-84 2107,-78 2113,-72 2119,-72 2119,-72 2149,-72 2149,-72 2155,-72 2161,-78 2161,-84 2161,-84 2161,-96 2161,-96 2161,-102 2155,-108 2149,-108"/>
<text text-anchor="middle" x="2134" y="-87.5" font-family="sans" font-size="10.00">Krona</text>
</g>
<!-- 12&#45;&gt;0 -->
<g id="edge5" class="edge">
<title>12&#45;&gt;0</title>
<path fill="none" stroke="grey" stroke-width="2" d="M2161.09,-79.7C2197.14,-67.34 2261,-45.42 2301.33,-31.58"/>
<polygon fill="grey" stroke="grey" stroke-width="2" points="2302.48,-34.89 2310.8,-28.33 2300.2,-28.27 2302.48,-34.89"/>
</g>
<!-- 13 -->
<g id="node14" class="node">
<title>13</title>
<path fill="none" stroke="#56d88a" stroke-width="2" stroke-dasharray="5,2" d="M2194,-185C2194,-185 1958,-185 1958,-185 1952,-185 1946,-179 1946,-173 1946,-173 1946,-156 1946,-156 1946,-150 1952,-144 1958,-144 1958,-144 2194,-144 2194,-144 2200,-144 2206,-150 2206,-156 2206,-156 2206,-173 2206,-173 2206,-179 2200,-185 2194,-185"/>
<text text-anchor="middle" x="2076" y="-173" font-family="sans" font-size="10.00">Kraken2</text>
<text text-anchor="middle" x="2076" y="-162" font-family="sans" font-size="10.00">con: 2</text>
<text text-anchor="middle" x="2076" y="-151" font-family="sans" font-size="10.00">names: 070_001_240321_001_0356_099_01_4691</text>
</g>
<!-- 13&#45;&gt;12 -->
<g id="edge24" class="edge">
<title>13&#45;&gt;12</title>
<path fill="none" stroke="grey" stroke-width="2" d="M2091.85,-143.69C2098.63,-135.21 2106.62,-125.22 2113.82,-116.23"/>
<polygon fill="grey" stroke="grey" stroke-width="2" points="2116.63,-118.31 2120.14,-108.32 2111.16,-113.94 2116.63,-118.31"/>
</g>
<!-- 14 -->
<g id="node15" class="node">
<title>14</title>
<path fill="none" stroke="#56d8a9" stroke-width="2" stroke-dasharray="5,2" d="M2380,-473C2380,-473 2144,-473 2144,-473 2138,-473 2132,-467 2132,-461 2132,-461 2132,-449 2132,-449 2132,-443 2138,-437 2144,-437 2144,-437 2380,-437 2380,-437 2386,-437 2392,-443 2392,-449 2392,-449 2392,-461 2392,-461 2392,-467 2386,-473 2380,-473"/>
<text text-anchor="middle" x="2262" y="-458" font-family="sans" font-size="10.00">Fastp</text>
<text text-anchor="middle" x="2262" y="-447" font-family="sans" font-size="10.00">names: 070_001_240321_001_0355_099_01_4691</text>
</g>
<!-- 14&#45;&gt;0 -->
<g id="edge6" class="edge">
<title>14&#45;&gt;0</title>
<path fill="none" stroke="grey" stroke-width="2" d="M2256.33,-436.73C2248.15,-410.21 2234,-357.73 2234,-312 2234,-312 2234,-312 2234,-163.5 2234,-113.28 2275.89,-68.6 2306.5,-42.66"/>
<polygon fill="grey" stroke="grey" stroke-width="2" points="2308.9,-45.22 2314.4,-36.16 2304.45,-39.81 2308.9,-45.22"/>
</g>
<!-- 16 -->
<g id="node17" class="node">
<title>16</title>
<path fill="none" stroke="#56c1d8" stroke-width="2" stroke-dasharray="5,2" d="M2304,-401C2304,-401 2274,-401 2274,-401 2268,-401 2262,-395 2262,-389 2262,-389 2262,-377 2262,-377 2262,-371 2268,-365 2274,-365 2274,-365 2304,-365 2304,-365 2310,-365 2316,-371 2316,-377 2316,-377 2316,-389 2316,-389 2316,-395 2310,-401 2304,-401"/>
<text text-anchor="middle" x="2289" y="-380.5" font-family="sans" font-size="10.00">shovill</text>
</g>
<!-- 14&#45;&gt;16 -->
<g id="edge25" class="edge">
<title>14&#45;&gt;16</title>
<path fill="none" stroke="grey" stroke-width="2" d="M2268.67,-436.7C2271.71,-428.81 2275.38,-419.3 2278.76,-410.55"/>
<polygon fill="grey" stroke="grey" stroke-width="2" points="2282.07,-411.69 2282.4,-401.1 2275.54,-409.17 2282.07,-411.69"/>
</g>
<!-- 15 -->
<g id="node16" class="node">
<title>15</title>
<path fill="none" stroke="#56d8a9" stroke-width="2" stroke-dasharray="5,2" d="M2875,-473C2875,-473 2639,-473 2639,-473 2633,-473 2627,-467 2627,-461 2627,-461 2627,-449 2627,-449 2627,-443 2633,-437 2639,-437 2639,-437 2875,-437 2875,-437 2881,-437 2887,-443 2887,-449 2887,-449 2887,-461 2887,-461 2887,-467 2881,-473 2875,-473"/>
<text text-anchor="middle" x="2757" y="-458" font-family="sans" font-size="10.00">Fastp</text>
<text text-anchor="middle" x="2757" y="-447" font-family="sans" font-size="10.00">names: 070_001_240321_001_0356_099_01_4691</text>
</g>
<!-- 15&#45;&gt;0 -->
<g id="edge7" class="edge">
<title>15&#45;&gt;0</title>
<path fill="none" stroke="grey" stroke-width="2" d="M2762.46,-436.71C2770.35,-410.18 2784,-357.67 2784,-312 2784,-312 2784,-312 2784,-163.5 2784,-112.3 2758.21,-97.84 2714,-72 2656.89,-38.63 2458.29,-25.01 2375.1,-20.68"/>
<polygon fill="grey" stroke="grey" stroke-width="2" points="2375.24,-17.18 2365.08,-20.18 2374.89,-24.17 2375.24,-17.18"/>
</g>
<!-- 17 -->
<g id="node18" class="node">
<title>17</title>
<path fill="none" stroke="#56c1d8" stroke-width="2" stroke-dasharray="5,2" d="M2744,-401C2744,-401 2714,-401 2714,-401 2708,-401 2702,-395 2702,-389 2702,-389 2702,-377 2702,-377 2702,-371 2708,-365 2714,-365 2714,-365 2744,-365 2744,-365 2750,-365 2756,-371 2756,-377 2756,-377 2756,-389 2756,-389 2756,-395 2750,-401 2744,-401"/>
<text text-anchor="middle" x="2729" y="-380.5" font-family="sans" font-size="10.00">shovill</text>
</g>
<!-- 15&#45;&gt;17 -->
<g id="edge26" class="edge">
<title>15&#45;&gt;17</title>
<path fill="none" stroke="grey" stroke-width="2" d="M2750.08,-436.7C2746.93,-428.81 2743.12,-419.3 2739.62,-410.55"/>
<polygon fill="grey" stroke="grey" stroke-width="2" points="2742.81,-409.09 2735.84,-401.1 2736.31,-411.69 2742.81,-409.09"/>
</g>
<!-- 16&#45;&gt;0 -->
<g id="edge8" class="edge">
<title>16&#45;&gt;0</title>
<path fill="none" stroke="grey" stroke-width="2" d="M2285.56,-364.59C2280.59,-337.9 2272,-285.19 2272,-240 2272,-240 2272,-240 2272,-163.5 2272,-118.46 2298.86,-72.07 2318.31,-44.39"/>
<polygon fill="grey" stroke="grey" stroke-width="2" points="2321.3,-46.24 2324.32,-36.09 2315.63,-42.14 2321.3,-46.24"/>
</g>
<!-- 18 -->
<g id="node19" class="node">
<title>18</title>
<path fill="none" stroke="#569ad8" stroke-width="2" stroke-dasharray="5,2" d="M2380,-329C2380,-329 2350,-329 2350,-329 2344,-329 2338,-323 2338,-317 2338,-317 2338,-305 2338,-305 2338,-299 2344,-293 2350,-293 2350,-293 2380,-293 2380,-293 2386,-293 2392,-299 2392,-305 2392,-305 2392,-317 2392,-317 2392,-323 2386,-329 2380,-329"/>
<text text-anchor="middle" x="2365" y="-308.5" font-family="sans" font-size="10.00">contigs</text>
</g>
<!-- 16&#45;&gt;18 -->
<g id="edge27" class="edge">
<title>16&#45;&gt;18</title>
<path fill="none" stroke="grey" stroke-width="2" d="M2307.79,-364.7C2317.17,-356.05 2328.68,-345.45 2338.91,-336.03"/>
<polygon fill="grey" stroke="grey" stroke-width="2" points="2341.45,-338.45 2346.43,-329.1 2336.7,-333.3 2341.45,-338.45"/>
</g>
<!-- 17&#45;&gt;0 -->
<g id="edge9" class="edge">
<title>17&#45;&gt;0</title>
<path fill="none" stroke="grey" stroke-width="2" d="M2732.44,-364.59C2737.41,-337.9 2746,-285.19 2746,-240 2746,-240 2746,-240 2746,-163.5 2746,-111.75 2718.64,-98.17 2674,-72 2623.82,-42.58 2451.92,-27.06 2375.34,-21.46"/>
<polygon fill="grey" stroke="grey" stroke-width="2" points="2375.41,-17.96 2365.18,-20.74 2374.91,-24.94 2375.41,-17.96"/>
</g>
<!-- 19 -->
<g id="node20" class="node">
<title>19</title>
<path fill="none" stroke="#569ad8" stroke-width="2" stroke-dasharray="5,2" d="M2668,-329C2668,-329 2638,-329 2638,-329 2632,-329 2626,-323 2626,-317 2626,-317 2626,-305 2626,-305 2626,-299 2632,-293 2638,-293 2638,-293 2668,-293 2668,-293 2674,-293 2680,-299 2680,-305 2680,-305 2680,-317 2680,-317 2680,-323 2674,-329 2668,-329"/>
<text text-anchor="middle" x="2653" y="-308.5" font-family="sans" font-size="10.00">contigs</text>
</g>
<!-- 17&#45;&gt;19 -->
<g id="edge28" class="edge">
<title>17&#45;&gt;19</title>
<path fill="none" stroke="grey" stroke-width="2" d="M2710.21,-364.7C2700.83,-356.05 2689.32,-345.45 2679.09,-336.03"/>
<polygon fill="grey" stroke="grey" stroke-width="2" points="2681.3,-333.3 2671.57,-329.1 2676.55,-338.45 2681.3,-333.3"/>
</g>
<!-- 18&#45;&gt;0 -->
<g id="edge10" class="edge">
<title>18&#45;&gt;0</title>
<path fill="none" stroke="grey" stroke-width="2" d="M2349.39,-292.77C2341.63,-283.03 2333.05,-270.18 2329,-257 2306.38,-183.46 2321.4,-91.08 2331.29,-46.1"/>
<polygon fill="grey" stroke="grey" stroke-width="2" points="2334.73,-46.76 2333.55,-36.24 2327.91,-45.2 2334.73,-46.76"/>
</g>
<!-- 20 -->
<g id="node21" class="node">
<title>20</title>
<path fill="none" stroke="#d85656" stroke-width="2" stroke-dasharray="5,2" d="M2524,-257C2524,-257 2494,-257 2494,-257 2488,-257 2482,-251 2482,-245 2482,-245 2482,-233 2482,-233 2482,-227 2488,-221 2494,-221 2494,-221 2524,-221 2524,-221 2530,-221 2536,-227 2536,-233 2536,-233 2536,-245 2536,-245 2536,-251 2530,-257 2524,-257"/>
<text text-anchor="middle" x="2509" y="-236.5" font-family="sans" font-size="10.00">skani</text>
</g>
<!-- 18&#45;&gt;20 -->
<g id="edge29" class="edge">
<title>18&#45;&gt;20</title>
<path fill="none" stroke="grey" stroke-width="2" d="M2392.09,-296.83C2414.77,-285.81 2447.36,-269.97 2472.37,-257.81"/>
<polygon fill="grey" stroke="grey" stroke-width="2" points="2474.08,-260.87 2481.55,-253.35 2471.02,-254.57 2474.08,-260.87"/>
</g>
<!-- 22 -->
<g id="node23" class="node">
<title>22</title>
<path fill="none" stroke="#d87556" stroke-width="2" stroke-dasharray="5,2" d="M2596,-257C2596,-257 2566,-257 2566,-257 2560,-257 2554,-251 2554,-245 2554,-245 2554,-233 2554,-233 2554,-227 2560,-221 2566,-221 2566,-221 2596,-221 2596,-221 2602,-221 2608,-227 2608,-233 2608,-233 2608,-245 2608,-245 2608,-251 2602,-257 2596,-257"/>
<text text-anchor="middle" x="2581" y="-236.5" font-family="sans" font-size="10.00">quast</text>
</g>
<!-- 18&#45;&gt;22 -->
<g id="edge33" class="edge">
<title>18&#45;&gt;22</title>
<path fill="none" stroke="grey" stroke-width="2" d="M2392.27,-303.38C2426.1,-294.86 2485.59,-278.9 2544.27,-257"/>
<polygon fill="grey" stroke="grey" stroke-width="2" points="2545.56,-260.26 2553.67,-253.44 2543.08,-253.71 2545.56,-260.26"/>
</g>
<!-- 27 -->
<g id="node28" class="node">
<title>27</title>
<path fill="none" stroke="#567bd8" stroke-width="2" stroke-dasharray="5,2" d="M2380,-257C2380,-257 2350,-257 2350,-257 2344,-257 2338,-251 2338,-245 2338,-245 2338,-233 2338,-233 2338,-227 2344,-221 2350,-221 2350,-221 2380,-221 2380,-221 2386,-221 2392,-227 2392,-233 2392,-233 2392,-245 2392,-245 2392,-251 2386,-257 2380,-257"/>
<text text-anchor="middle" x="2365" y="-236.5" font-family="sans" font-size="10.00">busco</text>
</g>
<!-- 18&#45;&gt;27 -->
<g id="edge40" class="edge">
<title>18&#45;&gt;27</title>
<path fill="none" stroke="grey" stroke-width="2" d="M2365,-292.7C2365,-284.98 2365,-275.71 2365,-267.11"/>
<polygon fill="grey" stroke="grey" stroke-width="2" points="2368.5,-267.1 2365,-257.1 2361.5,-267.1 2368.5,-267.1"/>
</g>
<!-- 19&#45;&gt;0 -->
<g id="edge11" class="edge">
<title>19&#45;&gt;0</title>
<path fill="none" stroke="grey" stroke-width="2" d="M2668.61,-292.77C2676.37,-283.03 2684.95,-270.18 2689,-257 2707.93,-195.43 2672.66,-93.55 2649,-72 2609.44,-35.97 2449.1,-24.07 2375.39,-20.45"/>
<polygon fill="grey" stroke="grey" stroke-width="2" points="2375.32,-16.94 2365.17,-19.97 2375,-23.93 2375.32,-16.94"/>
</g>
<!-- 19&#45;&gt;20 -->
<g id="edge30" class="edge">
<title>19&#45;&gt;20</title>
<path fill="none" stroke="grey" stroke-width="2" d="M2625.91,-296.83C2603.23,-285.81 2570.64,-269.97 2545.63,-257.81"/>
<polygon fill="grey" stroke="grey" stroke-width="2" points="2546.98,-254.57 2536.45,-253.35 2543.92,-260.87 2546.98,-254.57"/>
</g>
<!-- 23 -->
<g id="node24" class="node">
<title>23</title>
<path fill="none" stroke="#d87556" stroke-width="2" stroke-dasharray="5,2" d="M2668,-257C2668,-257 2638,-257 2638,-257 2632,-257 2626,-251 2626,-245 2626,-245 2626,-233 2626,-233 2626,-227 2632,-221 2638,-221 2638,-221 2668,-221 2668,-221 2674,-221 2680,-227 2680,-233 2680,-233 2680,-245 2680,-245 2680,-251 2674,-257 2668,-257"/>
<text text-anchor="middle" x="2653" y="-236.5" font-family="sans" font-size="10.00">quast</text>
</g>
<!-- 19&#45;&gt;23 -->
<g id="edge34" class="edge">
<title>19&#45;&gt;23</title>
<path fill="none" stroke="grey" stroke-width="2" d="M2653,-292.7C2653,-284.98 2653,-275.71 2653,-267.11"/>
<polygon fill="grey" stroke="grey" stroke-width="2" points="2656.5,-267.1 2653,-257.1 2649.5,-267.1 2656.5,-267.1"/>
</g>
<!-- 28 -->
<g id="node29" class="node">
<title>28</title>
<path fill="none" stroke="#567bd8" stroke-width="2" stroke-dasharray="5,2" d="M2452,-257C2452,-257 2422,-257 2422,-257 2416,-257 2410,-251 2410,-245 2410,-245 2410,-233 2410,-233 2410,-227 2416,-221 2422,-221 2422,-221 2452,-221 2452,-221 2458,-221 2464,-227 2464,-233 2464,-233 2464,-245 2464,-245 2464,-251 2458,-257 2452,-257"/>
<text text-anchor="middle" x="2437" y="-236.5" font-family="sans" font-size="10.00">busco</text>
</g>
<!-- 19&#45;&gt;28 -->
<g id="edge41" class="edge">
<title>19&#45;&gt;28</title>
<path fill="none" stroke="grey" stroke-width="2" d="M2625.73,-303.38C2591.9,-294.86 2532.41,-278.9 2473.73,-257"/>
<polygon fill="grey" stroke="grey" stroke-width="2" points="2474.92,-253.71 2464.33,-253.44 2472.44,-260.26 2474.92,-253.71"/>
</g>
<!-- 20&#45;&gt;0 -->
<g id="edge12" class="edge">
<title>20&#45;&gt;0</title>
<path fill="none" stroke="grey" stroke-width="2" d="M2496.55,-220.87C2482.71,-201.91 2459.58,-170.53 2439,-144 2411.8,-108.95 2379.42,-69.21 2358.79,-44.13"/>
<polygon fill="grey" stroke="grey" stroke-width="2" points="2361.33,-41.71 2352.27,-36.22 2355.93,-46.16 2361.33,-41.71"/>
</g>
<!-- 24 -->
<g id="node25" class="node">
<title>24</title>
<path fill="none" stroke="#ced856" stroke-width="2" stroke-dasharray="5,2" d="M2524,-108C2524,-108 2494,-108 2494,-108 2488,-108 2482,-102 2482,-96 2482,-96 2482,-84 2482,-84 2482,-78 2488,-72 2494,-72 2494,-72 2524,-72 2524,-72 2530,-72 2536,-78 2536,-84 2536,-84 2536,-96 2536,-96 2536,-102 2530,-108 2524,-108"/>
<text text-anchor="middle" x="2509" y="-87.5" font-family="sans" font-size="10.00">xlsx</text>
</g>
<!-- 20&#45;&gt;24 -->
<g id="edge36" class="edge">
<title>20&#45;&gt;24</title>
<path fill="none" stroke="grey" stroke-width="2" d="M2509,-220.85C2509,-195.62 2509,-148.26 2509,-118.24"/>
<polygon fill="grey" stroke="grey" stroke-width="2" points="2512.5,-118.04 2509,-108.04 2505.5,-118.04 2512.5,-118.04"/>
</g>
<!-- 21 -->
<g id="node22" class="node">
<title>21</title>
<path fill="none" stroke="#afd856" stroke-width="2" stroke-dasharray="5,2" d="M2620,-182.5C2620,-182.5 2556,-182.5 2556,-182.5 2550,-182.5 2544,-176.5 2544,-170.5 2544,-170.5 2544,-158.5 2544,-158.5 2544,-152.5 2550,-146.5 2556,-146.5 2556,-146.5 2620,-146.5 2620,-146.5 2626,-146.5 2632,-152.5 2632,-158.5 2632,-158.5 2632,-170.5 2632,-170.5 2632,-176.5 2626,-182.5 2620,-182.5"/>
<text text-anchor="middle" x="2588" y="-162" font-family="sans" font-size="10.00">summarytable</text>
</g>
<!-- 21&#45;&gt;0 -->
<g id="edge13" class="edge">
<title>21&#45;&gt;0</title>
<path fill="none" stroke="grey" stroke-width="2" d="M2606.79,-146.17C2625.77,-126.58 2649.79,-94.5 2631,-72 2598.85,-33.51 2447.1,-22.92 2375.53,-20.05"/>
<polygon fill="grey" stroke="grey" stroke-width="2" points="2375.29,-16.54 2365.17,-19.66 2375.04,-23.53 2375.29,-16.54"/>
</g>
<!-- 21&#45;&gt;24 -->
<g id="edge35" class="edge">
<title>21&#45;&gt;24</title>
<path fill="none" stroke="grey" stroke-width="2" d="M2569.28,-146.32C2559.05,-136.93 2546.21,-125.15 2535.02,-114.88"/>
<polygon fill="grey" stroke="grey" stroke-width="2" points="2537.32,-112.24 2527.59,-108.06 2532.59,-117.4 2537.32,-112.24"/>
</g>
<!-- 25 -->
<g id="node26" class="node">
<title>25</title>
<path fill="none" stroke="#56d8d0" stroke-width="2" stroke-dasharray="5,2" d="M2610,-108C2610,-108 2566,-108 2566,-108 2560,-108 2554,-102 2554,-96 2554,-96 2554,-84 2554,-84 2554,-78 2560,-72 2566,-72 2566,-72 2610,-72 2610,-72 2616,-72 2622,-78 2622,-84 2622,-84 2622,-96 2622,-96 2622,-102 2616,-108 2610,-108"/>
<text text-anchor="middle" x="2588" y="-87.5" font-family="sans" font-size="10.00">beeswarm</text>
</g>
<!-- 21&#45;&gt;25 -->
<g id="edge37" class="edge">
<title>21&#45;&gt;25</title>
<path fill="none" stroke="grey" stroke-width="2" d="M2588,-146.32C2588,-137.92 2588,-127.62 2588,-118.19"/>
<polygon fill="grey" stroke="grey" stroke-width="2" points="2591.5,-118.06 2588,-108.06 2584.5,-118.06 2591.5,-118.06"/>
</g>
<!-- 22&#45;&gt;21 -->
<g id="edge31" class="edge">
<title>22&#45;&gt;21</title>
<path fill="none" stroke="grey" stroke-width="2" d="M2582.66,-220.82C2583.47,-212.42 2584.46,-202.12 2585.38,-192.69"/>
<polygon fill="grey" stroke="grey" stroke-width="2" points="2588.88,-192.85 2586.35,-182.56 2581.91,-192.18 2588.88,-192.85"/>
</g>
<!-- 23&#45;&gt;21 -->
<g id="edge32" class="edge">
<title>23&#45;&gt;21</title>
<path fill="none" stroke="grey" stroke-width="2" d="M2637.6,-220.82C2629.42,-211.7 2619.23,-200.33 2610.21,-190.27"/>
<polygon fill="grey" stroke="grey" stroke-width="2" points="2612.58,-187.67 2603.29,-182.56 2607.36,-192.34 2612.58,-187.67"/>
</g>
<!-- 24&#45;&gt;0 -->
<g id="edge14" class="edge">
<title>24&#45;&gt;0</title>
<path fill="none" stroke="grey" stroke-width="2" d="M2481.66,-77.64C2477.1,-75.75 2472.42,-73.82 2468,-72 2436.52,-59.06 2400.7,-44.46 2374.64,-33.87"/>
<polygon fill="grey" stroke="grey" stroke-width="2" points="2375.74,-30.54 2365.16,-30.02 2373.11,-37.02 2375.74,-30.54"/>
</g>
<!-- 25&#45;&gt;0 -->
<g id="edge15" class="edge">
<title>25&#45;&gt;0</title>
<path fill="none" stroke="grey" stroke-width="2" d="M2553.87,-75.06C2550.89,-73.98 2547.9,-72.94 2545,-72 2486.44,-53.01 2416.83,-36.37 2375.09,-27.01"/>
<polygon fill="grey" stroke="grey" stroke-width="2" points="2375.63,-23.55 2365.1,-24.79 2374.11,-30.38 2375.63,-23.55"/>
</g>
<!-- 26 -->
<g id="node27" class="node">
<title>26</title>
<path fill="none" stroke="#88d856" stroke-width="2" d="M2418,-182.5C2418,-182.5 2350,-182.5 2350,-182.5 2344,-182.5 2338,-176.5 2338,-170.5 2338,-170.5 2338,-158.5 2338,-158.5 2338,-152.5 2344,-146.5 2350,-146.5 2350,-146.5 2418,-146.5 2418,-146.5 2424,-146.5 2430,-152.5 2430,-158.5 2430,-158.5 2430,-170.5 2430,-170.5 2430,-176.5 2424,-182.5 2418,-182.5"/>
<text text-anchor="middle" x="2384" y="-162" font-family="sans" font-size="10.00">buscosummary</text>
</g>
<!-- 26&#45;&gt;0 -->
<g id="edge16" class="edge">
<title>26&#45;&gt;0</title>
<path fill="none" stroke="grey" stroke-width="2" d="M2378.54,-146.36C2370.62,-121.48 2355.87,-75.14 2346.52,-45.75"/>
<polygon fill="grey" stroke="grey" stroke-width="2" points="2349.82,-44.59 2343.45,-36.12 2343.15,-46.71 2349.82,-44.59"/>
</g>
<!-- 27&#45;&gt;26 -->
<g id="edge38" class="edge">
<title>27&#45;&gt;26</title>
<path fill="none" stroke="grey" stroke-width="2" d="M2369.5,-220.82C2371.73,-212.33 2374.46,-201.89 2376.96,-192.38"/>
<polygon fill="grey" stroke="grey" stroke-width="2" points="2380.38,-193.12 2379.53,-182.56 2373.61,-191.34 2380.38,-193.12"/>
</g>
<!-- 28&#45;&gt;26 -->
<g id="edge39" class="edge">
<title>28&#45;&gt;26</title>
<path fill="none" stroke="grey" stroke-width="2" d="M2424.44,-220.82C2417.91,-211.88 2409.79,-200.78 2402.55,-190.87"/>
<polygon fill="grey" stroke="grey" stroke-width="2" points="2405.2,-188.57 2396.47,-182.56 2399.55,-192.7 2405.2,-188.57"/>
</g>
</g>
</svg>
