<?xml version="1.0" encoding="UTF-8" standalone="no"?>
<!DOCTYPE svg PUBLIC "-//W3C//DTD SVG 1.1//EN"
 "http://www.w3.org/Graphics/SVG/1.1/DTD/svg11.dtd">
<!-- Generated by graphviz version 2.43.0 (0)
 -->
<!-- Title: snakemake_dag Pages: 1 -->
<svg width="594pt" height="476pt"
 viewBox="0.00 0.00 594.00 476.00" xmlns="http://www.w3.org/2000/svg" xmlns:xlink="http://www.w3.org/1999/xlink">
<g id="graph0" class="graph" transform="scale(1 1) rotate(0) translate(4 472)">
<title>snakemake_dag</title>
<polygon fill="white" stroke="transparent" points="-4,4 -4,-472 590,-472 590,4 -4,4"/>
<!-- 0 -->
<g id="node1" class="node">
<title>0</title>
<path fill="none" stroke="#56d88a" stroke-width="2" d="M266,-36C266,-36 236,-36 236,-36 230,-36 224,-30 224,-24 224,-24 224,-12 224,-12 224,-6 230,0 236,0 236,0 266,0 266,0 272,0 278,-6 278,-12 278,-12 278,-24 278,-24 278,-30 272,-36 266,-36"/>
<text text-anchor="middle" x="251" y="-15.5" font-family="sans" font-size="10.00">all</text>
</g>
<!-- 1 -->
<g id="node2" class="node">
<title>1</title>
<path fill="none" stroke="#afd856" stroke-width="2" d="M43,-108C43,-108 13,-108 13,-108 7,-108 1,-102 1,-96 1,-96 1,-84 1,-84 1,-78 7,-72 13,-72 13,-72 43,-72 43,-72 49,-72 55,-78 55,-84 55,-84 55,-96 55,-96 55,-102 49,-108 43,-108"/>
<text text-anchor="middle" x="28" y="-87.5" font-family="sans" font-size="10.00">multiqc</text>
</g>
<!-- 1&#45;&gt;0 -->
<g id="edge5" class="edge">
<title>1&#45;&gt;0</title>
<path fill="none" stroke="grey" stroke-width="2" d="M55.28,-75.9C58.53,-74.51 61.82,-73.18 65,-72 115.52,-53.32 175.76,-37.24 213.7,-27.84"/>
<polygon fill="grey" stroke="grey" stroke-width="2" points="214.91,-31.14 223.79,-25.36 213.24,-24.35 214.91,-31.14"/>
</g>
<!-- 2 -->
<g id="node3" class="node">
<title>2</title>
<path fill="none" stroke="#56d86b" stroke-width="2" d="M42,-180C42,-180 12,-180 12,-180 6,-180 0,-174 0,-168 0,-168 0,-156 0,-156 0,-150 6,-144 12,-144 12,-144 42,-144 42,-144 48,-144 54,-150 54,-156 54,-156 54,-168 54,-168 54,-174 48,-180 42,-180"/>
<text text-anchor="middle" x="27" y="-159.5" font-family="sans" font-size="10.00">fastqc</text>
</g>
<!-- 2&#45;&gt;1 -->
<g id="edge11" class="edge">
<title>2&#45;&gt;1</title>
<path fill="none" stroke="grey" stroke-width="2" d="M27.25,-143.7C27.36,-135.98 27.49,-126.71 27.61,-118.11"/>
<polygon fill="grey" stroke="grey" stroke-width="2" points="31.11,-118.15 27.76,-108.1 24.11,-118.05 31.11,-118.15"/>
</g>
<!-- 3 -->
<g id="node4" class="node">
<title>3</title>
<path fill="none" stroke="#d85656" stroke-width="2" d="M116,-108C116,-108 86,-108 86,-108 80,-108 74,-102 74,-96 74,-96 74,-84 74,-84 74,-78 80,-72 86,-72 86,-72 116,-72 116,-72 122,-72 128,-78 128,-84 128,-84 128,-96 128,-96 128,-102 122,-108 116,-108"/>
<text text-anchor="middle" x="101" y="-87.5" font-family="sans" font-size="10.00">Krona</text>
</g>
<!-- 3&#45;&gt;0 -->
<g id="edge1" class="edge">
<title>3&#45;&gt;0</title>
<path fill="none" stroke="grey" stroke-width="2" d="M128.16,-76.32C152.3,-65.06 187.78,-48.5 214.41,-36.07"/>
<polygon fill="grey" stroke="grey" stroke-width="2" points="216.2,-39.1 223.79,-31.7 213.24,-32.76 216.2,-39.1"/>
</g>
<!-- 4 -->
<g id="node5" class="node">
<title>4</title>
<path fill="none" stroke="#d89c56" stroke-width="2" d="M116,-180C116,-180 84,-180 84,-180 78,-180 72,-174 72,-168 72,-168 72,-156 72,-156 72,-150 78,-144 84,-144 84,-144 116,-144 116,-144 122,-144 128,-150 128,-156 128,-156 128,-168 128,-168 128,-174 122,-180 116,-180"/>
<text text-anchor="middle" x="100" y="-159.5" font-family="sans" font-size="10.00">Kraken2</text>
</g>
<!-- 4&#45;&gt;3 -->
<g id="edge12" class="edge">
<title>4&#45;&gt;3</title>
<path fill="none" stroke="grey" stroke-width="2" d="M100.25,-143.7C100.36,-135.98 100.49,-126.71 100.61,-118.11"/>
<polygon fill="grey" stroke="grey" stroke-width="2" points="104.11,-118.15 100.76,-108.1 97.11,-118.05 104.11,-118.15"/>
</g>
<!-- 5 -->
<g id="node6" class="node">
<title>5</title>
<path fill="none" stroke="#d87556" stroke-width="2" d="M198,-468C198,-468 168,-468 168,-468 162,-468 156,-462 156,-456 156,-456 156,-444 156,-444 156,-438 162,-432 168,-432 168,-432 198,-432 198,-432 204,-432 210,-438 210,-444 210,-444 210,-456 210,-456 210,-462 204,-468 198,-468"/>
<text text-anchor="middle" x="183" y="-447.5" font-family="sans" font-size="10.00">Fastp</text>
</g>
<!-- 5&#45;&gt;0 -->
<g id="edge2" class="edge">
<title>5&#45;&gt;0</title>
<path fill="none" stroke="grey" stroke-width="2" d="M177.54,-431.71C169.65,-405.18 156,-352.67 156,-307 156,-307 156,-307 156,-161 156,-113.01 193.94,-68.96 221.87,-43.04"/>
<polygon fill="grey" stroke="grey" stroke-width="2" points="224.35,-45.52 229.44,-36.22 219.67,-40.31 224.35,-45.52"/>
</g>
<!-- 6 -->
<g id="node7" class="node">
<title>6</title>
<path fill="none" stroke="#56d8a9" stroke-width="2" d="M226,-396C226,-396 196,-396 196,-396 190,-396 184,-390 184,-384 184,-384 184,-372 184,-372 184,-366 190,-360 196,-360 196,-360 226,-360 226,-360 232,-360 238,-366 238,-372 238,-372 238,-384 238,-384 238,-390 232,-396 226,-396"/>
<text text-anchor="middle" x="211" y="-375.5" font-family="sans" font-size="10.00">shovill</text>
</g>
<!-- 5&#45;&gt;6 -->
<g id="edge13" class="edge">
<title>5&#45;&gt;6</title>
<path fill="none" stroke="grey" stroke-width="2" d="M189.92,-431.7C193.07,-423.81 196.88,-414.3 200.38,-405.55"/>
<polygon fill="grey" stroke="grey" stroke-width="2" points="203.69,-406.69 204.16,-396.1 197.19,-404.09 203.69,-406.69"/>
</g>
<!-- 6&#45;&gt;0 -->
<g id="edge7" class="edge">
<title>6&#45;&gt;0</title>
<path fill="none" stroke="grey" stroke-width="2" d="M207.56,-359.59C202.59,-332.9 194,-280.19 194,-235 194,-235 194,-235 194,-161 194,-117.8 217,-72.19 233.78,-44.66"/>
<polygon fill="grey" stroke="grey" stroke-width="2" points="236.83,-46.37 239.19,-36.04 230.91,-42.65 236.83,-46.37"/>
</g>
<!-- 7 -->
<g id="node8" class="node">
<title>7</title>
<path fill="none" stroke="#ced856" stroke-width="2" d="M304,-324C304,-324 274,-324 274,-324 268,-324 262,-318 262,-312 262,-312 262,-300 262,-300 262,-294 268,-288 274,-288 274,-288 304,-288 304,-288 310,-288 316,-294 316,-300 316,-300 316,-312 316,-312 316,-318 310,-324 304,-324"/>
<text text-anchor="middle" x="289" y="-303.5" font-family="sans" font-size="10.00">contigs</text>
</g>
<!-- 6&#45;&gt;7 -->
<g id="edge14" class="edge">
<title>6&#45;&gt;7</title>
<path fill="none" stroke="grey" stroke-width="2" d="M230.28,-359.7C239.92,-351.05 251.73,-340.45 262.23,-331.03"/>
<polygon fill="grey" stroke="grey" stroke-width="2" points="264.84,-333.39 269.94,-324.1 260.16,-328.18 264.84,-333.39"/>
</g>
<!-- 7&#45;&gt;0 -->
<g id="edge4" class="edge">
<title>7&#45;&gt;0</title>
<path fill="none" stroke="grey" stroke-width="2" d="M282.5,-287.93C273.81,-264.16 258.83,-219.55 253,-180 246.14,-133.49 247.43,-78.61 249.12,-46.43"/>
<polygon fill="grey" stroke="grey" stroke-width="2" points="252.64,-46.23 249.73,-36.04 245.65,-45.82 252.64,-46.23"/>
</g>
<!-- 8 -->
<g id="node9" class="node">
<title>8</title>
<path fill="none" stroke="#569ad8" stroke-width="2" d="M304,-180C304,-180 274,-180 274,-180 268,-180 262,-174 262,-168 262,-168 262,-156 262,-156 262,-150 268,-144 274,-144 274,-144 304,-144 304,-144 310,-144 316,-150 316,-156 316,-156 316,-168 316,-168 316,-174 310,-180 304,-180"/>
<text text-anchor="middle" x="289" y="-159.5" font-family="sans" font-size="10.00">skani</text>
</g>
<!-- 7&#45;&gt;8 -->
<g id="edge15" class="edge">
<title>7&#45;&gt;8</title>
<path fill="none" stroke="grey" stroke-width="2" d="M289,-287.87C289,-263.67 289,-219.21 289,-190.39"/>
<polygon fill="grey" stroke="grey" stroke-width="2" points="292.5,-190.19 289,-180.19 285.5,-190.19 292.5,-190.19"/>
</g>
<!-- 10 -->
<g id="node11" class="node">
<title>10</title>
<path fill="none" stroke="#88d856" stroke-width="2" d="M376,-252C376,-252 346,-252 346,-252 340,-252 334,-246 334,-240 334,-240 334,-228 334,-228 334,-222 340,-216 346,-216 346,-216 376,-216 376,-216 382,-216 388,-222 388,-228 388,-228 388,-240 388,-240 388,-246 382,-252 376,-252"/>
<text text-anchor="middle" x="361" y="-231.5" font-family="sans" font-size="10.00">quast</text>
</g>
<!-- 7&#45;&gt;10 -->
<g id="edge17" class="edge">
<title>7&#45;&gt;10</title>
<path fill="none" stroke="grey" stroke-width="2" d="M306.8,-287.7C315.6,-279.14 326.38,-268.66 336,-259.3"/>
<polygon fill="grey" stroke="grey" stroke-width="2" points="338.68,-261.58 343.41,-252.1 333.8,-256.57 338.68,-261.58"/>
</g>
<!-- 14 -->
<g id="node15" class="node">
<title>14</title>
<path fill="none" stroke="#567bd8" stroke-width="2" d="M487,-252C487,-252 457,-252 457,-252 451,-252 445,-246 445,-240 445,-240 445,-228 445,-228 445,-222 451,-216 457,-216 457,-216 487,-216 487,-216 493,-216 499,-222 499,-228 499,-228 499,-240 499,-240 499,-246 493,-252 487,-252"/>
<text text-anchor="middle" x="472" y="-231.5" font-family="sans" font-size="10.00">busco</text>
</g>
<!-- 7&#45;&gt;14 -->
<g id="edge22" class="edge">
<title>7&#45;&gt;14</title>
<path fill="none" stroke="grey" stroke-width="2" d="M316,-294.67C347.63,-282.57 400.17,-262.48 435.43,-248.99"/>
<polygon fill="grey" stroke="grey" stroke-width="2" points="436.8,-252.21 444.89,-245.37 434.3,-245.67 436.8,-252.21"/>
</g>
<!-- 8&#45;&gt;0 -->
<g id="edge10" class="edge">
<title>8&#45;&gt;0</title>
<path fill="none" stroke="grey" stroke-width="2" d="M284.42,-143.87C277.91,-119.56 265.94,-74.82 258.23,-46.01"/>
<polygon fill="grey" stroke="grey" stroke-width="2" points="261.57,-44.94 255.6,-36.19 254.8,-46.75 261.57,-44.94"/>
</g>
<!-- 11 -->
<g id="node12" class="node">
<title>11</title>
<path fill="none" stroke="#68d856" stroke-width="2" d="M340,-108C340,-108 310,-108 310,-108 304,-108 298,-102 298,-96 298,-96 298,-84 298,-84 298,-78 304,-72 310,-72 310,-72 340,-72 340,-72 346,-72 352,-78 352,-84 352,-84 352,-96 352,-96 352,-102 346,-108 340,-108"/>
<text text-anchor="middle" x="325" y="-87.5" font-family="sans" font-size="10.00">xlsx</text>
</g>
<!-- 8&#45;&gt;11 -->
<g id="edge19" class="edge">
<title>8&#45;&gt;11</title>
<path fill="none" stroke="grey" stroke-width="2" d="M297.9,-143.7C302,-135.73 306.95,-126.1 311.49,-117.26"/>
<polygon fill="grey" stroke="grey" stroke-width="2" points="314.74,-118.6 316.2,-108.1 308.52,-115.4 314.74,-118.6"/>
</g>
<!-- 9 -->
<g id="node10" class="node">
<title>9</title>
<path fill="none" stroke="#56c1d8" stroke-width="2" d="M411,-180C411,-180 347,-180 347,-180 341,-180 335,-174 335,-168 335,-168 335,-156 335,-156 335,-150 341,-144 347,-144 347,-144 411,-144 411,-144 417,-144 423,-150 423,-156 423,-156 423,-168 423,-168 423,-174 417,-180 411,-180"/>
<text text-anchor="middle" x="379" y="-159.5" font-family="sans" font-size="10.00">summarytable</text>
</g>
<!-- 9&#45;&gt;0 -->
<g id="edge9" class="edge">
<title>9&#45;&gt;0</title>
<path fill="none" stroke="grey" stroke-width="2" d="M379.84,-143.75C379.89,-124.33 377.16,-92.79 361,-72 343.05,-48.9 312.49,-35.31 288.13,-27.68"/>
<polygon fill="grey" stroke="grey" stroke-width="2" points="289.05,-24.3 278.47,-24.86 287.08,-31.02 289.05,-24.3"/>
</g>
<!-- 9&#45;&gt;11 -->
<g id="edge18" class="edge">
<title>9&#45;&gt;11</title>
<path fill="none" stroke="grey" stroke-width="2" d="M365.65,-143.7C359.24,-135.39 351.44,-125.28 344.39,-116.14"/>
<polygon fill="grey" stroke="grey" stroke-width="2" points="347.07,-113.88 338.19,-108.1 341.53,-118.16 347.07,-113.88"/>
</g>
<!-- 12 -->
<g id="node13" class="node">
<title>12</title>
<path fill="none" stroke="#d8bc56" stroke-width="2" d="M464,-108C464,-108 420,-108 420,-108 414,-108 408,-102 408,-96 408,-96 408,-84 408,-84 408,-78 414,-72 420,-72 420,-72 464,-72 464,-72 470,-72 476,-78 476,-84 476,-84 476,-96 476,-96 476,-102 470,-108 464,-108"/>
<text text-anchor="middle" x="442" y="-87.5" font-family="sans" font-size="10.00">beeswarm</text>
</g>
<!-- 9&#45;&gt;12 -->
<g id="edge20" class="edge">
<title>9&#45;&gt;12</title>
<path fill="none" stroke="grey" stroke-width="2" d="M394.57,-143.7C402.2,-135.22 411.52,-124.86 419.88,-115.58"/>
<polygon fill="grey" stroke="grey" stroke-width="2" points="422.52,-117.88 426.61,-108.1 417.31,-113.2 422.52,-117.88"/>
</g>
<!-- 10&#45;&gt;9 -->
<g id="edge16" class="edge">
<title>10&#45;&gt;9</title>
<path fill="none" stroke="grey" stroke-width="2" d="M365.45,-215.7C367.45,-207.9 369.87,-198.51 372.1,-189.83"/>
<polygon fill="grey" stroke="grey" stroke-width="2" points="375.5,-190.66 374.6,-180.1 368.72,-188.92 375.5,-190.66"/>
</g>
<!-- 11&#45;&gt;0 -->
<g id="edge6" class="edge">
<title>11&#45;&gt;0</title>
<path fill="none" stroke="grey" stroke-width="2" d="M306.71,-71.7C297.57,-63.05 286.36,-52.45 276.4,-43.03"/>
<polygon fill="grey" stroke="grey" stroke-width="2" points="278.75,-40.43 269.08,-36.1 273.94,-45.52 278.75,-40.43"/>
</g>
<!-- 12&#45;&gt;0 -->
<g id="edge3" class="edge">
<title>12&#45;&gt;0</title>
<path fill="none" stroke="grey" stroke-width="2" d="M407.85,-76.49C374.06,-64.1 322.5,-45.2 287.81,-32.49"/>
<polygon fill="grey" stroke="grey" stroke-width="2" points="288.66,-29.07 278.06,-28.92 286.25,-35.65 288.66,-29.07"/>
</g>
<!-- 13 -->
<g id="node14" class="node">
<title>13</title>
<path fill="none" stroke="#56d8d0" stroke-width="2" d="M574,-108C574,-108 506,-108 506,-108 500,-108 494,-102 494,-96 494,-96 494,-84 494,-84 494,-78 500,-72 506,-72 506,-72 574,-72 574,-72 580,-72 586,-78 586,-84 586,-84 586,-96 586,-96 586,-102 580,-108 574,-108"/>
<text text-anchor="middle" x="540" y="-87.5" font-family="sans" font-size="10.00">buscosummary</text>
</g>
<!-- 13&#45;&gt;0 -->
<g id="edge8" class="edge">
<title>13&#45;&gt;0</title>
<path fill="none" stroke="grey" stroke-width="2" d="M493.86,-74.46C490.87,-73.6 487.9,-72.77 485,-72 415.98,-53.55 334.4,-36.03 288.07,-26.48"/>
<polygon fill="grey" stroke="grey" stroke-width="2" points="288.69,-23.03 278.19,-24.45 287.28,-29.89 288.69,-23.03"/>
</g>
<!-- 14&#45;&gt;13 -->
<g id="edge21" class="edge">
<title>14&#45;&gt;13</title>
<path fill="none" stroke="grey" stroke-width="2" d="M480.2,-215.87C491.94,-191.35 513.65,-146.03 527.43,-117.26"/>
<polygon fill="grey" stroke="grey" stroke-width="2" points="530.61,-118.72 531.77,-108.19 524.29,-115.7 530.61,-118.72"/>
</g>
</g>
</svg>
