<?xml version="1.0" encoding="UTF-8" standalone="no"?>
<!DOCTYPE svg PUBLIC "-//W3C//DTD SVG 1.1//EN"
 "http://www.w3.org/Graphics/SVG/1.1/DTD/svg11.dtd">
<!-- Generated by graphviz version 2.43.0 (0)
 -->
<!-- Title: snakemake_dag Pages: 1 -->
<svg width="390pt" height="476pt"
 viewBox="0.00 0.00 390.00 476.00" xmlns="http://www.w3.org/2000/svg" xmlns:xlink="http://www.w3.org/1999/xlink">
<g id="graph0" class="graph" transform="scale(1 1) rotate(0) translate(4 472)">
<title>snakemake_dag</title>
<polygon fill="white" stroke="transparent" points="-4,4 -4,-472 386,-472 386,4 -4,4"/>
<!-- 0 -->
<g id="node1" class="node">
<title>0</title>
<path fill="none" stroke="#d89c56" stroke-width="2" d="M197,-36C197,-36 167,-36 167,-36 161,-36 155,-30 155,-24 155,-24 155,-12 155,-12 155,-6 161,0 167,0 167,0 197,0 197,0 203,0 209,-6 209,-12 209,-12 209,-24 209,-24 209,-30 203,-36 197,-36"/>
<text text-anchor="middle" x="182" y="-15.5" font-family="sans" font-size="10.00">all</text>
</g>
<!-- 1 -->
<g id="node2" class="node">
<title>1</title>
<path fill="none" stroke="#567bd8" stroke-width="2" d="M45,-108C45,-108 15,-108 15,-108 9,-108 3,-102 3,-96 3,-96 3,-84 3,-84 3,-78 9,-72 15,-72 15,-72 45,-72 45,-72 51,-72 57,-78 57,-84 57,-84 57,-96 57,-96 57,-102 51,-108 45,-108"/>
<text text-anchor="middle" x="30" y="-87.5" font-family="sans" font-size="10.00">multiqc</text>
</g>
<!-- 1&#45;&gt;0 -->
<g id="edge5" class="edge">
<title>1&#45;&gt;0</title>
<path fill="none" stroke="grey" stroke-width="2" d="M57.11,-76.15C60.11,-74.75 63.12,-73.34 66,-72 92.53,-59.68 122.58,-45.95 145.44,-35.56"/>
<polygon fill="grey" stroke="grey" stroke-width="2" points="147.11,-38.65 154.77,-31.33 144.22,-32.27 147.11,-38.65"/>
</g>
<!-- 2 -->
<g id="node3" class="node">
<title>2</title>
<path fill="none" stroke="#88d856" stroke-width="2" d="M42,-180C42,-180 12,-180 12,-180 6,-180 0,-174 0,-168 0,-168 0,-156 0,-156 0,-150 6,-144 12,-144 12,-144 42,-144 42,-144 48,-144 54,-150 54,-156 54,-156 54,-168 54,-168 54,-174 48,-180 42,-180"/>
<text text-anchor="middle" x="27" y="-159.5" font-family="sans" font-size="10.00">fastqc</text>
</g>
<!-- 2&#45;&gt;1 -->
<g id="edge6" class="edge">
<title>2&#45;&gt;1</title>
<path fill="none" stroke="grey" stroke-width="2" d="M27.74,-143.7C28.07,-135.98 28.47,-126.71 28.84,-118.11"/>
<polygon fill="grey" stroke="grey" stroke-width="2" points="32.34,-118.25 29.27,-108.1 25.34,-117.95 32.34,-118.25"/>
</g>
<!-- 3 -->
<g id="node4" class="node">
<title>3</title>
<path fill="none" stroke="#ced856" stroke-width="2" d="M117,-108C117,-108 87,-108 87,-108 81,-108 75,-102 75,-96 75,-96 75,-84 75,-84 75,-78 81,-72 87,-72 87,-72 117,-72 117,-72 123,-72 129,-78 129,-84 129,-84 129,-96 129,-96 129,-102 123,-108 117,-108"/>
<text text-anchor="middle" x="102" y="-87.5" font-family="sans" font-size="10.00">Krona</text>
</g>
<!-- 3&#45;&gt;0 -->
<g id="edge2" class="edge">
<title>3&#45;&gt;0</title>
<path fill="none" stroke="grey" stroke-width="2" d="M121.78,-71.7C131.75,-62.97 144.01,-52.24 154.86,-42.75"/>
<polygon fill="grey" stroke="grey" stroke-width="2" points="157.23,-45.32 162.45,-36.1 152.62,-40.06 157.23,-45.32"/>
</g>
<!-- 4 -->
<g id="node5" class="node">
<title>4</title>
<path fill="none" stroke="#d85656" stroke-width="2" d="M116,-180C116,-180 84,-180 84,-180 78,-180 72,-174 72,-168 72,-168 72,-156 72,-156 72,-150 78,-144 84,-144 84,-144 116,-144 116,-144 122,-144 128,-150 128,-156 128,-156 128,-168 128,-168 128,-174 122,-180 116,-180"/>
<text text-anchor="middle" x="100" y="-159.5" font-family="sans" font-size="10.00">Kraken2</text>
</g>
<!-- 4&#45;&gt;3 -->
<g id="edge7" class="edge">
<title>4&#45;&gt;3</title>
<path fill="none" stroke="grey" stroke-width="2" d="M100.49,-143.7C100.71,-135.98 100.98,-126.71 101.23,-118.11"/>
<polygon fill="grey" stroke="grey" stroke-width="2" points="104.72,-118.2 101.51,-108.1 97.73,-118 104.72,-118.2"/>
</g>
<!-- 5 -->
<g id="node6" class="node">
<title>5</title>
<path fill="none" stroke="#d8bc56" stroke-width="2" d="M276,-108C276,-108 246,-108 246,-108 240,-108 234,-102 234,-96 234,-96 234,-84 234,-84 234,-78 240,-72 246,-72 246,-72 276,-72 276,-72 282,-72 288,-78 288,-84 288,-84 288,-96 288,-96 288,-102 282,-108 276,-108"/>
<text text-anchor="middle" x="261" y="-87.5" font-family="sans" font-size="10.00">xlsx</text>
</g>
<!-- 5&#45;&gt;0 -->
<g id="edge1" class="edge">
<title>5&#45;&gt;0</title>
<path fill="none" stroke="grey" stroke-width="2" d="M241.47,-71.7C231.62,-62.97 219.51,-52.24 208.8,-42.75"/>
<polygon fill="grey" stroke="grey" stroke-width="2" points="211.11,-40.12 201.3,-36.1 206.47,-45.36 211.11,-40.12"/>
</g>
<!-- 6 -->
<g id="node7" class="node">
<title>6</title>
<path fill="none" stroke="#afd856" stroke-width="2" d="M222,-180C222,-180 158,-180 158,-180 152,-180 146,-174 146,-168 146,-168 146,-156 146,-156 146,-150 152,-144 158,-144 158,-144 222,-144 222,-144 228,-144 234,-150 234,-156 234,-156 234,-168 234,-168 234,-174 228,-180 222,-180"/>
<text text-anchor="middle" x="190" y="-159.5" font-family="sans" font-size="10.00">summarytable</text>
</g>
<!-- 6&#45;&gt;5 -->
<g id="edge8" class="edge">
<title>6&#45;&gt;5</title>
<path fill="none" stroke="grey" stroke-width="2" d="M207.55,-143.7C216.23,-135.14 226.86,-124.66 236.35,-115.3"/>
<polygon fill="grey" stroke="grey" stroke-width="2" points="238.99,-117.62 243.65,-108.1 234.07,-112.63 238.99,-117.62"/>
</g>
<!-- 12 -->
<g id="node13" class="node">
<title>12</title>
<path fill="none" stroke="#56c1d8" stroke-width="2" d="M204,-108C204,-108 160,-108 160,-108 154,-108 148,-102 148,-96 148,-96 148,-84 148,-84 148,-78 154,-72 160,-72 160,-72 204,-72 204,-72 210,-72 216,-78 216,-84 216,-84 216,-96 216,-96 216,-102 210,-108 204,-108"/>
<text text-anchor="middle" x="182" y="-87.5" font-family="sans" font-size="10.00">beeswarm</text>
</g>
<!-- 6&#45;&gt;12 -->
<g id="edge15" class="edge">
<title>6&#45;&gt;12</title>
<path fill="none" stroke="grey" stroke-width="2" d="M188.02,-143.7C187.14,-135.98 186.08,-126.71 185.1,-118.11"/>
<polygon fill="grey" stroke="grey" stroke-width="2" points="188.57,-117.64 183.95,-108.1 181.61,-118.44 188.57,-117.64"/>
</g>
<!-- 7 -->
<g id="node8" class="node">
<title>7</title>
<path fill="none" stroke="#56d8d0" stroke-width="2" d="M205,-252C205,-252 175,-252 175,-252 169,-252 163,-246 163,-240 163,-240 163,-228 163,-228 163,-222 169,-216 175,-216 175,-216 205,-216 205,-216 211,-216 217,-222 217,-228 217,-228 217,-240 217,-240 217,-246 211,-252 205,-252"/>
<text text-anchor="middle" x="190" y="-231.5" font-family="sans" font-size="10.00">quast</text>
</g>
<!-- 7&#45;&gt;6 -->
<g id="edge10" class="edge">
<title>7&#45;&gt;6</title>
<path fill="none" stroke="grey" stroke-width="2" d="M190,-215.7C190,-207.98 190,-198.71 190,-190.11"/>
<polygon fill="grey" stroke="grey" stroke-width="2" points="193.5,-190.1 190,-180.1 186.5,-190.1 193.5,-190.1"/>
</g>
<!-- 8 -->
<g id="node9" class="node">
<title>8</title>
<path fill="none" stroke="#68d856" stroke-width="2" d="M277,-324C277,-324 247,-324 247,-324 241,-324 235,-318 235,-312 235,-312 235,-300 235,-300 235,-294 241,-288 247,-288 247,-288 277,-288 277,-288 283,-288 289,-294 289,-300 289,-300 289,-312 289,-312 289,-318 283,-324 277,-324"/>
<text text-anchor="middle" x="262" y="-303.5" font-family="sans" font-size="10.00">contigs</text>
</g>
<!-- 8&#45;&gt;7 -->
<g id="edge11" class="edge">
<title>8&#45;&gt;7</title>
<path fill="none" stroke="grey" stroke-width="2" d="M244.2,-287.7C235.4,-279.14 224.62,-268.66 215,-259.3"/>
<polygon fill="grey" stroke="grey" stroke-width="2" points="217.2,-256.57 207.59,-252.1 212.32,-261.58 217.2,-256.57"/>
</g>
<!-- 11 -->
<g id="node12" class="node">
<title>11</title>
<path fill="none" stroke="#56d86b" stroke-width="2" d="M277,-252C277,-252 247,-252 247,-252 241,-252 235,-246 235,-240 235,-240 235,-228 235,-228 235,-222 241,-216 247,-216 247,-216 277,-216 277,-216 283,-216 289,-222 289,-228 289,-228 289,-240 289,-240 289,-246 283,-252 277,-252"/>
<text text-anchor="middle" x="262" y="-231.5" font-family="sans" font-size="10.00">skani</text>
</g>
<!-- 8&#45;&gt;11 -->
<g id="edge14" class="edge">
<title>8&#45;&gt;11</title>
<path fill="none" stroke="grey" stroke-width="2" d="M262,-287.7C262,-279.98 262,-270.71 262,-262.11"/>
<polygon fill="grey" stroke="grey" stroke-width="2" points="265.5,-262.1 262,-252.1 258.5,-262.1 265.5,-262.1"/>
</g>
<!-- 14 -->
<g id="node15" class="node">
<title>14</title>
<path fill="none" stroke="#569ad8" stroke-width="2" d="M350,-252C350,-252 320,-252 320,-252 314,-252 308,-246 308,-240 308,-240 308,-228 308,-228 308,-222 314,-216 320,-216 320,-216 350,-216 350,-216 356,-216 362,-222 362,-228 362,-228 362,-240 362,-240 362,-246 356,-252 350,-252"/>
<text text-anchor="middle" x="335" y="-231.5" font-family="sans" font-size="10.00">busco</text>
</g>
<!-- 8&#45;&gt;14 -->
<g id="edge17" class="edge">
<title>8&#45;&gt;14</title>
<path fill="none" stroke="grey" stroke-width="2" d="M280.04,-287.7C289.06,-279.05 300.12,-268.45 309.94,-259.03"/>
<polygon fill="grey" stroke="grey" stroke-width="2" points="312.37,-261.55 317.16,-252.1 307.52,-256.5 312.37,-261.55"/>
</g>
<!-- 9 -->
<g id="node10" class="node">
<title>9</title>
<path fill="none" stroke="#d87556" stroke-width="2" d="M277,-396C277,-396 247,-396 247,-396 241,-396 235,-390 235,-384 235,-384 235,-372 235,-372 235,-366 241,-360 247,-360 247,-360 277,-360 277,-360 283,-360 289,-366 289,-372 289,-372 289,-384 289,-384 289,-390 283,-396 277,-396"/>
<text text-anchor="middle" x="262" y="-375.5" font-family="sans" font-size="10.00">shovill</text>
</g>
<!-- 9&#45;&gt;8 -->
<g id="edge12" class="edge">
<title>9&#45;&gt;8</title>
<path fill="none" stroke="grey" stroke-width="2" d="M262,-359.7C262,-351.98 262,-342.71 262,-334.11"/>
<polygon fill="grey" stroke="grey" stroke-width="2" points="265.5,-334.1 262,-324.1 258.5,-334.1 265.5,-334.1"/>
</g>
<!-- 10 -->
<g id="node11" class="node">
<title>10</title>
<path fill="none" stroke="#56d8a9" stroke-width="2" d="M277,-468C277,-468 247,-468 247,-468 241,-468 235,-462 235,-456 235,-456 235,-444 235,-444 235,-438 241,-432 247,-432 247,-432 277,-432 277,-432 283,-432 289,-438 289,-444 289,-444 289,-456 289,-456 289,-462 283,-468 277,-468"/>
<text text-anchor="middle" x="262" y="-447.5" font-family="sans" font-size="10.00">Fastp</text>
</g>
<!-- 10&#45;&gt;9 -->
<g id="edge13" class="edge">
<title>10&#45;&gt;9</title>
<path fill="none" stroke="grey" stroke-width="2" d="M262,-431.7C262,-423.98 262,-414.71 262,-406.11"/>
<polygon fill="grey" stroke="grey" stroke-width="2" points="265.5,-406.1 262,-396.1 258.5,-406.1 265.5,-406.1"/>
</g>
<!-- 11&#45;&gt;5 -->
<g id="edge9" class="edge">
<title>11&#45;&gt;5</title>
<path fill="none" stroke="grey" stroke-width="2" d="M261.88,-215.87C261.71,-191.67 261.4,-147.21 261.19,-118.39"/>
<polygon fill="grey" stroke="grey" stroke-width="2" points="264.69,-118.16 261.12,-108.19 257.69,-118.21 264.69,-118.16"/>
</g>
<!-- 12&#45;&gt;0 -->
<g id="edge4" class="edge">
<title>12&#45;&gt;0</title>
<path fill="none" stroke="grey" stroke-width="2" d="M182,-71.7C182,-63.98 182,-54.71 182,-46.11"/>
<polygon fill="grey" stroke="grey" stroke-width="2" points="185.5,-46.1 182,-36.1 178.5,-46.1 185.5,-46.1"/>
</g>
<!-- 13 -->
<g id="node14" class="node">
<title>13</title>
<path fill="none" stroke="#56d88a" stroke-width="2" d="M370,-180C370,-180 302,-180 302,-180 296,-180 290,-174 290,-168 290,-168 290,-156 290,-156 290,-150 296,-144 302,-144 302,-144 370,-144 370,-144 376,-144 382,-150 382,-156 382,-156 382,-168 382,-168 382,-174 376,-180 370,-180"/>
<text text-anchor="middle" x="336" y="-159.5" font-family="sans" font-size="10.00">buscosummary</text>
</g>
<!-- 13&#45;&gt;0 -->
<g id="edge3" class="edge">
<title>13&#45;&gt;0</title>
<path fill="none" stroke="grey" stroke-width="2" d="M332.38,-143.85C327.44,-124.24 316.85,-92.23 297,-72 275.75,-50.35 244,-36.64 219.24,-28.6"/>
<polygon fill="grey" stroke="grey" stroke-width="2" points="220.03,-25.18 209.45,-25.6 217.98,-31.88 220.03,-25.18"/>
</g>
<!-- 14&#45;&gt;13 -->
<g id="edge16" class="edge">
<title>14&#45;&gt;13</title>
<path fill="none" stroke="grey" stroke-width="2" d="M335.25,-215.7C335.36,-207.98 335.49,-198.71 335.61,-190.11"/>
<polygon fill="grey" stroke="grey" stroke-width="2" points="339.11,-190.15 335.76,-180.1 332.11,-190.05 339.11,-190.15"/>
</g>
</g>
</svg>
